<?xml version="1.0" encoding="utf-8"?>
<!-- Generator: Adobe Illustrator 21.0.2, SVG Export Plug-In . SVG Version: 6.00 Build 0)  -->
<svg version="1.1" id="Layer_1" xmlns="http://www.w3.org/2000/svg" xmlns:xlink="http://www.w3.org/1999/xlink" x="0px" y="0px"
	 viewBox="0 0 2195.5 1347.4" style="enable-background:new 0 0 2195.5 1347.4;" xml:space="preserve">
<style type="text/css">
	.st0{fill:#29346D;}
	.st1{fill:none;stroke:#232D5B;stroke-width:6.2618;stroke-linejoin:round;}
	.st2{fill:none;stroke:#232D5B;stroke-width:6.2618;stroke-miterlimit:10;}
	.st3{fill:none;stroke:#232D5B;stroke-width:2.4503;stroke-miterlimit:10;}
	.st4{fill:none;stroke:#232D5B;stroke-width:3.8006;stroke-miterlimit:10;}
	.st5{fill:none;stroke:#232D5B;stroke-width:7.3507;stroke-miterlimit:10;}
	.st6{fill:none;stroke:#232D5B;stroke-width:6.2618;stroke-linecap:round;stroke-linejoin:round;}
	.st7{fill:none;stroke:#232D5B;stroke-width:2.4503;stroke-linecap:round;stroke-linejoin:round;}
	.st8{fill:none;stroke:#232D5B;stroke-width:2.4503;stroke-linecap:round;stroke-miterlimit:10;}
	.st9{fill:none;stroke:#232D5B;stroke-width:2.812;stroke-linejoin:round;}
	.st10{fill:none;stroke:#232D5B;stroke-width:2.4503;stroke-linejoin:round;}
	.st11{fill:none;stroke:#232D5B;stroke-width:2.3885;stroke-linecap:round;stroke-miterlimit:10;}
	.st12{fill:none;stroke:#232D5B;stroke-width:3.5392;stroke-linecap:round;stroke-miterlimit:10;}
	.st13{fill:none;stroke:#232D5B;stroke-width:2.4091;stroke-linecap:round;stroke-miterlimit:10;}
	.st14{fill:none;stroke:#232D5B;stroke-width:2.3946;stroke-linecap:round;stroke-miterlimit:10;}
	.st15{fill:none;stroke:#232D5B;stroke-width:6.0561;stroke-linecap:round;stroke-linejoin:round;}
	.st16{fill:none;stroke:#232D5B;stroke-width:2.3692;stroke-linecap:round;stroke-linejoin:round;}
	.st17{fill:none;stroke:#232D5B;stroke-width:2.3692;stroke-linecap:round;stroke-miterlimit:10;}
	.st18{fill:none;stroke:#232D5B;stroke-width:2.7189;stroke-linejoin:round;}
	.st19{fill:none;stroke:#232D5B;stroke-width:2.3692;stroke-linejoin:round;}
	.st20{fill:none;stroke:#232D5B;stroke-width:2.3099;stroke-linecap:round;stroke-miterlimit:10;}
	.st21{fill:none;stroke:#232D5B;stroke-width:3.4231;stroke-linecap:round;stroke-miterlimit:10;}
	.st22{fill:none;stroke:#232D5B;stroke-width:5.0868;stroke-linejoin:round;}
	.st23{fill:none;stroke:#232D5B;stroke-width:3.826;stroke-miterlimit:10;}
	.st24{fill:none;stroke:#232D5B;stroke-width:1.4968;stroke-miterlimit:10;}
	.st25{fill:none;stroke:#232D5B;stroke-width:6.0561;stroke-miterlimit:10;}
	.st26{fill:none;stroke:#232D5B;stroke-width:3.676;stroke-miterlimit:10;}
	.st27{fill:none;stroke:#232D5B;stroke-width:2.3692;stroke-miterlimit:10;}
	.st28{fill:none;stroke:#232D5B;stroke-width:7.1087;stroke-miterlimit:10;}
	.st29{fill:none;stroke:#232D5B;stroke-width:10.7726;stroke-linecap:round;stroke-linejoin:round;}
	.st30{fill:none;stroke:#232D5B;stroke-width:4.2156;stroke-linecap:round;stroke-linejoin:round;}
	.st31{fill:none;stroke:#232D5B;stroke-width:4.8376;stroke-linejoin:round;}
	.st32{fill:none;stroke:#232D5B;stroke-width:4.2156;stroke-linejoin:round;}
	.st33{fill:none;stroke:#232D5B;stroke-width:4.114;stroke-linecap:round;stroke-miterlimit:10;}
	.st34{fill:none;stroke:#232D5B;stroke-width:6.0887;stroke-linecap:round;stroke-miterlimit:10;}
	.st35{fill:none;stroke:#232D5B;stroke-width:4.788;stroke-miterlimit:10;}
	.st36{fill:none;stroke:#232D5B;stroke-width:2.9052;stroke-miterlimit:10;}
	.st37{fill:none;stroke:#232D5B;stroke-width:1.8731;stroke-miterlimit:10;}
	.st38{fill:none;stroke:#232D5B;stroke-width:4.788;stroke-linejoin:round;}
	.st39{fill:none;stroke:#232D5B;stroke-width:5.9847;stroke-miterlimit:10;}
	.st40{fill:none;stroke:#232D5B;stroke-width:2.3413;stroke-miterlimit:10;}
	.st41{fill:none;stroke:#232D5B;stroke-width:4.2156;stroke-linecap:round;stroke-miterlimit:10;}
	.st42{fill:none;stroke:#232D5B;stroke-width:4.1503;stroke-linecap:round;stroke-miterlimit:10;}
	.st43{fill:none;stroke:#232D5B;stroke-width:7.0253;stroke-miterlimit:10;}
	.st44{fill:none;stroke:#232D5B;stroke-width:4.0934;stroke-linecap:round;stroke-miterlimit:10;}
	.st45{fill:none;stroke:#232D5B;stroke-width:10.2281;stroke-miterlimit:10;}
	.st46{fill:none;stroke:#232D5B;stroke-width:4.0027;stroke-miterlimit:10;}
	.st47{fill:none;stroke:#232D5B;stroke-width:12.5235;stroke-miterlimit:10;}
	.st48{fill:none;stroke:#232D5B;stroke-width:7.6012;stroke-miterlimit:10;}
	.st49{fill:none;stroke:#232D5B;stroke-width:4.9005;stroke-miterlimit:10;}
	.st50{fill:none;stroke:#232D5B;stroke-width:27.83;stroke-miterlimit:10;}
	.st51{fill:none;stroke:#232D5B;stroke-width:13.915;stroke-miterlimit:10;}
	.st52{fill:none;stroke:#232D5B;stroke-width:17.8112;stroke-linecap:round;stroke-linejoin:round;}
	.st53{fill:none;stroke:#232D5B;stroke-width:6.9696;stroke-linecap:round;stroke-linejoin:round;}
	.st54{fill:none;stroke:#232D5B;stroke-width:6.9696;stroke-linecap:round;stroke-miterlimit:10;}
	.st55{fill:none;stroke:#232D5B;stroke-width:7.9981;stroke-linejoin:round;}
	.st56{fill:none;stroke:#232D5B;stroke-width:6.9696;stroke-linejoin:round;}
	.st57{fill:none;stroke:#232D5B;stroke-width:10.0672;stroke-linecap:round;stroke-miterlimit:10;}
	.st58{fill:none;stroke:#232D5B;stroke-width:6.8692;stroke-linecap:round;stroke-miterlimit:10;}
	.st59{fill:#232D5B;stroke:#232D5B;stroke-width:1.21;stroke-miterlimit:10;}
	.st60{fill:none;stroke:#232D5B;stroke-width:1.21;stroke-miterlimit:10;}
	.st61{fill:#232D5B;stroke:#232D5B;stroke-width:0.392;stroke-linecap:round;stroke-linejoin:round;}
	.st62{fill:none;stroke:#232D5B;stroke-width:0.392;stroke-linecap:round;stroke-linejoin:round;}
	.st63{fill:#232D5B;stroke:#232D5B;stroke-width:0.3787;stroke-linecap:round;stroke-linejoin:round;}
	.st64{fill:none;stroke:#232D5B;stroke-width:0.3787;stroke-linecap:round;stroke-linejoin:round;}
</style>
<title>introBackground2</title>
<g id="Background">
	<rect x="-439.9" y="-184.1" class="st0" width="3051.6" height="1713"/>
</g>
<g id="Objets_in_group">
	<path class="st1" d="M253,738.4l9.8-5.7l2.7,4.7l-7.2,4.1l62.5,104.9c0,0,15.2,1.7,19.1,6.8c3.4,4.4,37.1,53.3,46.6,67.2
		c1.3,1.9,0.8,4.4-1,5.7c-0.1,0.1-0.2,0.1-0.3,0.2l-16.2,9.3l-1,0.6l-16.2,9.3c-2,1.1-4.4,0.5-5.6-1.5c-0.1-0.1-0.1-0.2-0.2-0.3
		c-7.2-15.2-32.8-68.8-34.9-74c-2.5-6,3.6-20,3.6-20l-59.6-106.6l-7.2,4.1l-2.7-4.7l9.8-5.7"/>
	<path class="st2" d="M276.3,989.1c-30.9,17-61.5,3.3-61.5,3.3l-46.2-80c2.7-21.4,15.3-40.3,34-50.9"/>
	<path class="st2" d="M275.2,989.7c30.2-18.3,33.6-51.6,33.6-51.6l-46.2-80c-19.9-8.4-42.5-6.9-61.1,4"/>
	<line class="st3" x1="202.6" y1="861.4" x2="253.9" y2="950.3"/>
	<path class="st3" d="M234.8,960.9c-1.1-2.4-1.2-8.2,1.9-8.3l16.1-1.6l-9.8,13.6c-2.5,0.5-6.4-0.6-8-3.4L234.8,960.9z"/>
	<path class="st3" d="M273.2,938.8c-1.5-2.2-6.5-5.1-8.2-2.5l-9.4,13.1l16.7-1.7c1.7-1.9,2.6-5.9,1.1-8.6L273.2,938.8z"/>
	<path class="st2" d="M351.7,811.1l162.1-93.6c2.1-1.2,4.9-0.5,6.1,1.6l53.7,93.1c1.2,2.1,0.5,4.9-1.6,6.1l-162.1,93.6
		c-2.1,1.2-4.9,0.5-6.1-1.6l-53.7-93.1C348.9,815,349.6,812.3,351.7,811.1z"/>
	<line class="st2" x1="358.1" y1="831.1" x2="528" y2="733"/>
	<ellipse transform="matrix(0.866 -0.5 0.5 0.866 -359.4752 290.9938)" class="st4" cx="363.3" cy="816.3" rx="1" ry="1"/>
	<ellipse transform="matrix(0.866 -0.5 0.5 0.866 -356.159 294.3098)" class="st4" cx="371.1" cy="811.8" rx="1" ry="1"/>
	<ellipse transform="matrix(0.866 -0.5 0.5 0.866 -353.0196 297.4491)" class="st4" cx="378.5" cy="807.5" rx="1" ry="1"/>
	<line class="st3" x1="384.1" y1="836.2" x2="447.1" y2="799.9"/>
	<line class="st3" x1="395.3" y1="855.6" x2="458.3" y2="819.2"/>
	<line class="st3" x1="406.5" y1="875" x2="469.5" y2="838.6"/>
	<line class="st3" x1="457.6" y1="793.8" x2="519.9" y2="757.9"/>
	<line class="st3" x1="465.8" y1="808" x2="528.1" y2="772.1"/>
	<line class="st3" x1="474.1" y1="822.3" x2="536.3" y2="786.4"/>
	<line class="st5" x1="66.3" y1="900.9" x2="65.4" y2="901.4"/>
	<path class="st2" d="M96.3,914.7l72.6,123.2c3,5.4,9.7,7.4,15.1,4.4l2.3-1.3c5.3-3.2,6.9-10.1,3.7-15.3l-78.5-126.1l-3.1-15.2
		l-2.4-21.3c-0.8-3.8-3.3-11.2-8.6-14.9c-8.2-5.8-21.7-7.3-25.6-5.1l16.8,14.4L88,870.6l-7.5,7.8l-9.9,4.1L53,868.7
		c-3.7,11.6,12.2,31.5,12.2,31.5l0.4,0.4c4.4,0.3,25.4,4.8,30.5,13.5"/>
	<line class="st5" x1="80.4" y1="878.4" x2="65.2" y2="900.3"/>
	<line class="st3" x1="89.4" y1="884.7" x2="99.9" y2="891.4"/>
	<line class="st3" x1="87.5" y1="887.9" x2="98" y2="894.6"/>
	<line class="st3" x1="85.7" y1="891" x2="96.1" y2="897.7"/>
	<line class="st5" x1="111.6" y1="899.5" x2="95.3" y2="912.8"/>
	<line class="st5" x1="96.6" y1="915.2" x2="96" y2="914.2"/>
	<line class="st2" x1="359.2" y1="758.5" x2="464.6" y2="697.7"/>
	<line class="st2" x1="366" y1="781" x2="343.1" y2="741.4"/>
	<line class="st2" x1="358" y1="785.6" x2="335.1" y2="746"/>
	<line class="st2" x1="350" y1="790.2" x2="327.1" y2="750.6"/>
	<line class="st2" x1="334.4" y1="772.8" x2="328.7" y2="776.1"/>
	<line class="st2" x1="480.7" y1="714.8" x2="457.8" y2="675.2"/>
	<line class="st2" x1="488.7" y1="710.1" x2="465.8" y2="670.6"/>
	<line class="st2" x1="496.7" y1="705.5" x2="473.8" y2="665.9"/>
	<line class="st2" x1="489.4" y1="683.3" x2="495.1" y2="680.1"/>
	<ellipse transform="matrix(0.866 -0.5 0.5 0.866 -289.4984 284.1413)" class="st6" cx="385.5" cy="682.3" rx="37.2" ry="37.2"/>
	<ellipse transform="matrix(0.866 -0.5 0.5 0.866 -289.4984 284.1413)" class="st7" cx="385.5" cy="682.3" rx="27" ry="27"/>
	<polyline class="st8" points="356.1,731.8 339.9,703.7 337.7,700 	"/>
	<polyline class="st9" points="327.5,689.9 334.4,701.9 337.7,700 	"/>
	<polyline class="st10" points="334.1,686.1 341,698.1 337.7,700 330.8,688 	"/>
	<polyline class="st11" points="441.2,682.9 425.8,656.2 423.7,652.6 	"/>
	<ellipse transform="matrix(0.866 -0.5 0.5 0.866 -266.8875 296.6255)" class="st12" cx="420.1" cy="646.3" rx="4.7" ry="7"/>
	<path class="st1" d="M806,738.4l9.8-5.7l2.7,4.7l-7.2,4.1l62.5,104.9c0,0,15.2,1.7,19.1,6.8c3.4,4.4,37.1,53.3,46.6,67.2
		c1.3,1.9,0.8,4.4-1,5.7c-0.1,0.1-0.2,0.1-0.3,0.2l-16.2,9.3l-1,0.6l-16.2,9.3c-2,1.1-4.4,0.5-5.6-1.5c-0.1-0.1-0.1-0.2-0.2-0.3
		c-7.2-15.2-32.8-68.8-34.9-74c-2.5-6,3.6-20,3.6-20l-59.6-106.6l-7.2,4.1l-2.7-4.7l9.8-5.7"/>
	<path class="st2" d="M829.2,989.1c-30.9,17-61.5,3.3-61.5,3.3l-46.2-80c2.7-21.4,15.3-40.3,34-50.9"/>
	<path class="st2" d="M828.1,989.7c30.2-18.3,33.6-51.6,33.6-51.6l-46.2-80c-19.9-8.4-42.5-6.9-61.1,4"/>
	<line class="st3" x1="755.6" y1="861.4" x2="806.9" y2="950.3"/>
	<path class="st3" d="M787.8,960.9c-1.1-2.4-1.2-8.2,1.9-8.3l16.1-1.6l-9.8,13.6c-2.5,0.5-6.4-0.6-8-3.4L787.8,960.9z"/>
	<path class="st3" d="M826.2,938.8c-1.5-2.2-6.5-5.1-8.2-2.5l-9.4,13.1l16.7-1.7c1.7-1.9,2.6-5.9,1.1-8.6L826.2,938.8z"/>
	<path class="st2" d="M904.7,811.1l162.1-93.6c2.1-1.2,4.9-0.5,6.1,1.6l53.7,93.1c1.2,2.1,0.5,4.9-1.6,6.1l-162.1,93.6
		c-2.1,1.2-4.9,0.5-6.1-1.6l-53.7-93.1C901.8,815,902.6,812.3,904.7,811.1z"/>
	<line class="st2" x1="911.1" y1="831.1" x2="1081" y2="733"/>
	<ellipse transform="matrix(0.866 -0.5 0.5 0.866 -285.3913 567.4785)" class="st4" cx="916.2" cy="816.3" rx="1" ry="1"/>
	<ellipse transform="matrix(0.866 -0.5 0.5 0.866 -282.075 570.7951)" class="st4" cx="924.1" cy="811.8" rx="1" ry="1"/>
	<ellipse transform="matrix(0.866 -0.5 0.5 0.866 -278.9357 573.9338)" class="st4" cx="931.5" cy="807.5" rx="1" ry="1"/>
	<line class="st3" x1="937.1" y1="836.2" x2="1000.1" y2="799.9"/>
	<line class="st3" x1="948.3" y1="855.6" x2="1011.2" y2="819.2"/>
	<line class="st3" x1="959.5" y1="875" x2="1022.4" y2="838.6"/>
	<line class="st3" x1="1010.6" y1="793.8" x2="1072.8" y2="757.9"/>
	<line class="st3" x1="1018.8" y1="808" x2="1081.1" y2="772.1"/>
	<line class="st3" x1="1027" y1="822.3" x2="1089.3" y2="786.4"/>
	<line class="st5" x1="619.3" y1="900.9" x2="618.4" y2="901.4"/>
	<path class="st2" d="M649.3,914.7l72.6,123.2c3,5.4,9.7,7.4,15.1,4.4l2.3-1.3c5.3-3.2,6.9-10.1,3.7-15.3l-78.5-126.1l-3.1-15.2
		l-2.4-21.3c-0.8-3.8-3.3-11.2-8.6-14.9c-8.2-5.8-21.7-7.3-25.6-5.1l16.8,14.4l-0.8,13.1l-7.5,7.8l-9.9,4.1l-17.5-13.8
		c-3.7,11.6,12.2,31.5,12.2,31.5l0.4,0.4c4.4,0.3,25.4,4.8,30.5,13.5"/>
	<line class="st5" x1="633.4" y1="878.4" x2="618.1" y2="900.3"/>
	<line class="st3" x1="642.4" y1="884.7" x2="652.8" y2="891.4"/>
	<line class="st3" x1="640.5" y1="887.9" x2="651" y2="894.6"/>
	<line class="st3" x1="638.6" y1="891" x2="649.1" y2="897.7"/>
	<line class="st5" x1="664.6" y1="899.5" x2="648.2" y2="912.8"/>
	<line class="st5" x1="649.6" y1="915.2" x2="649" y2="914.2"/>
	<line class="st2" x1="912.2" y1="758.5" x2="1017.6" y2="697.7"/>
	<line class="st2" x1="918.9" y1="781" x2="896.1" y2="741.4"/>
	<line class="st2" x1="911" y1="785.6" x2="888.1" y2="746"/>
	<line class="st2" x1="903" y1="790.2" x2="880.1" y2="750.6"/>
	<line class="st2" x1="887.4" y1="772.8" x2="881.7" y2="776.1"/>
	<line class="st2" x1="1033.7" y1="714.8" x2="1010.8" y2="675.2"/>
	<line class="st2" x1="1041.7" y1="710.1" x2="1018.8" y2="670.6"/>
	<line class="st2" x1="1049.6" y1="705.5" x2="1026.8" y2="665.9"/>
	<line class="st2" x1="1042.4" y1="683.3" x2="1048.1" y2="680.1"/>
	<ellipse transform="matrix(0.866 -0.5 0.5 0.866 -215.4145 560.626)" class="st6" cx="938.4" cy="682.3" rx="37.2" ry="37.2"/>
	<ellipse transform="matrix(0.866 -0.5 0.5 0.866 -215.4145 560.626)" class="st7" cx="938.4" cy="682.3" rx="27" ry="27"/>
	<polyline class="st8" points="909.1,731.8 892.9,703.7 890.7,700 	"/>
	<polyline class="st9" points="880.5,689.9 887.4,701.9 890.7,700 	"/>
	<polyline class="st10" points="887.1,686.1 894,698.1 890.7,700 883.8,688 	"/>
	<polyline class="st13" points="994.1,682.9 978.5,655.7 976.4,652.1 	"/>
	<ellipse transform="matrix(0.866 -0.5 0.5 0.866 -192.8035 573.111)" class="st12" cx="973" cy="646.3" rx="4.7" ry="7"/>
	<path class="st1" d="M492.6,299.2l9.8-5.7l2.7,4.7l-7.2,4.1l62.5,104.9c0,0,15.2,1.7,19.1,6.8c3.4,4.4,37.1,53.3,46.6,67.2
		c1.3,1.9,0.8,4.4-1,5.7c-0.1,0.1-0.2,0.1-0.3,0.2l-16.2,9.3l-1,0.6l-16.2,9.3c-2,1.1-4.4,0.5-5.6-1.5c-0.1-0.1-0.1-0.2-0.2-0.3
		c-7.2-15.2-32.8-68.8-34.9-74c-2.5-6,3.6-20,3.6-20L495,304.1l-7.2,4.1l-2.7-4.7l9.8-5.7"/>
	<path class="st2" d="M515.9,549.8c-30.9,17-61.5,3.3-61.5,3.3l-46.2-80c2.7-21.4,15.3-40.3,34-50.9"/>
	<path class="st2" d="M514.7,550.5c30.2-18.3,33.6-51.6,33.6-51.6l-46.2-80c-19.9-8.4-42.5-6.9-61.1,4"/>
	<line class="st3" x1="442.2" y1="422.2" x2="493.5" y2="511.1"/>
	<path class="st3" d="M474.4,521.7c-1.1-2.4-1.2-8.2,1.9-8.3l16.1-1.6l-9.8,13.6c-2.5,0.5-6.4-0.6-8-3.4L474.4,521.7z"/>
	<path class="st3" d="M512.8,499.5c-1.5-2.2-6.5-5.1-8.2-2.5l-9.4,13.1l16.7-1.7c1.7-1.9,2.6-5.9,1.1-8.6L512.8,499.5z"/>
	<path class="st2" d="M591.3,371.8l162.1-93.6c2.1-1.2,4.9-0.5,6.1,1.6l53.7,93.1c1.2,2.1,0.5,4.9-1.6,6.1l-162.1,93.6
		c-2.1,1.2-4.9,0.5-6.1-1.6l-53.7-93.1C588.4,375.8,589.2,373.1,591.3,371.8z"/>
	<line class="st2" x1="597.7" y1="391.9" x2="767.6" y2="293.8"/>
	<ellipse transform="matrix(0.866 -0.5 0.5 0.866 -107.7624 351.9381)" class="st4" cx="602.8" cy="377.1" rx="1" ry="1"/>
	<ellipse transform="matrix(0.866 -0.5 0.5 0.866 -104.4462 355.2541)" class="st4" cx="610.7" cy="372.5" rx="1" ry="1"/>
	<ellipse transform="matrix(0.866 -0.5 0.5 0.866 -101.3068 358.3934)" class="st4" cx="618.1" cy="368.2" rx="1" ry="1"/>
	<line class="st3" x1="623.7" y1="397" x2="686.7" y2="360.6"/>
	<line class="st3" x1="634.9" y1="416.4" x2="697.9" y2="380"/>
	<line class="st3" x1="646.1" y1="435.8" x2="709" y2="399.4"/>
	<line class="st3" x1="697.2" y1="354.6" x2="759.4" y2="318.6"/>
	<line class="st3" x1="705.4" y1="368.8" x2="767.7" y2="332.9"/>
	<line class="st3" x1="713.7" y1="383.1" x2="775.9" y2="347.1"/>
	<line class="st5" x1="305.9" y1="461.7" x2="305" y2="462.2"/>
	<path class="st2" d="M335.9,475.5l72.6,123.2c3,5.4,9.7,7.4,15.1,4.4l2.3-1.3c5.3-3.2,6.9-10.1,3.7-15.3l-78.5-126.1l-3.1-15.2
		l-2.4-21.3c-0.8-3.8-3.3-11.2-8.6-14.9c-8.2-5.8-21.7-7.3-25.6-5.1l16.8,14.4l-0.8,13.1l-7.5,7.8l-9.9,4.1l-17.5-13.8
		c-3.7,11.6,12.2,31.5,12.2,31.5l0.4,0.4c4.4,0.3,25.4,4.8,30.5,13.5"/>
	<line class="st5" x1="320" y1="439.2" x2="304.7" y2="461"/>
	<line class="st3" x1="329" y1="445.5" x2="339.4" y2="452.2"/>
	<line class="st3" x1="327.1" y1="448.7" x2="337.6" y2="455.3"/>
	<line class="st3" x1="325.2" y1="451.8" x2="335.7" y2="458.5"/>
	<line class="st5" x1="351.2" y1="460.3" x2="334.8" y2="473.6"/>
	<line class="st5" x1="336.2" y1="476" x2="335.6" y2="474.9"/>
	<line class="st2" x1="598.8" y1="319.3" x2="704.2" y2="258.4"/>
	<line class="st2" x1="605.6" y1="341.8" x2="582.7" y2="302.2"/>
	<line class="st2" x1="597.6" y1="346.4" x2="574.7" y2="306.8"/>
	<line class="st2" x1="589.6" y1="351" x2="566.7" y2="311.4"/>
	<line class="st2" x1="574" y1="333.6" x2="568.3" y2="336.9"/>
	<line class="st2" x1="720.3" y1="275.5" x2="697.4" y2="235.9"/>
	<line class="st2" x1="728.3" y1="270.9" x2="705.4" y2="231.3"/>
	<line class="st2" x1="736.3" y1="266.3" x2="713.4" y2="226.7"/>
	<line class="st2" x1="729" y1="244.1" x2="734.7" y2="240.8"/>
	<ellipse transform="matrix(0.866 -0.5 0.5 0.866 -37.7862 345.0857)" class="st6" cx="625" cy="243.1" rx="37.2" ry="37.2"/>
	<ellipse transform="matrix(0.866 -0.5 0.5 0.866 -37.7862 345.0857)" class="st7" cx="625" cy="243.1" rx="27" ry="27"/>
	<polyline class="st8" points="595.7,292.6 579.5,264.5 577.3,260.8 	"/>
	<polyline class="st9" points="567.1,250.7 574,262.7 577.3,260.8 	"/>
	<polyline class="st10" points="573.7,246.8 580.6,258.9 577.3,260.8 570.4,248.7 	"/>
	<polyline class="st11" points="680.7,243.6 665.3,216.9 663.3,213.4 	"/>
	<ellipse transform="matrix(0.866 -0.5 0.5 0.866 -15.1754 357.57)" class="st12" cx="659.6" cy="207.1" rx="4.7" ry="7"/>
	<path class="st1" d="M1441.2,690l9.8-5.7l2.7,4.7l-7.2,4.1l62.5,104.9c0,0,15.2,1.7,19.1,6.8c3.4,4.4,37.1,53.3,46.6,67.2
		c1.3,1.9,0.8,4.4-1,5.7c-0.1,0.1-0.2,0.1-0.3,0.2l-16.2,9.3l-1,0.6l-16.2,9.4c-2,1.1-4.4,0.5-5.6-1.5c-0.1-0.1-0.1-0.2-0.2-0.3
		c-7.2-15.2-32.8-68.8-34.9-74c-2.5-6,3.6-20,3.6-20l-59.6-106.6l-7.2,4.1l-2.7-4.7l9.8-5.7"/>
	<path class="st2" d="M1464.5,940.7c-30.9,17-61.5,3.3-61.5,3.3l-46.2-80c2.7-21.4,15.3-40.3,34-50.9"/>
	<path class="st2" d="M1463.4,941.3c30.2-18.3,33.6-51.6,33.6-51.6l-46.2-80c-19.9-8.4-42.5-6.9-61.1,4"/>
	<line class="st3" x1="1390.8" y1="813" x2="1442.1" y2="901.9"/>
	<path class="st3" d="M1423.1,912.5c-1.1-2.4-1.2-8.2,1.9-8.3l16.1-1.6l-9.8,13.6c-2.5,0.5-6.4-0.6-8-3.4L1423.1,912.5z"/>
	<path class="st3" d="M1461.4,890.4c-1.5-2.2-6.5-5.1-8.2-2.5l-9.4,13.1l16.7-1.7c1.7-1.9,2.6-5.9,1.1-8.6L1461.4,890.4z"/>
	<path class="st2" d="M1539.9,762.7l162.1-93.6c2.1-1.2,4.9-0.5,6.1,1.6l53.7,93.1c1.2,2.1,0.5,4.9-1.6,6.1l-162.1,93.6
		c-2.1,1.2-4.9,0.5-6.1-1.6l-53.7-93.1C1537.1,766.6,1537.8,763.9,1539.9,762.7z"/>
	<line class="st2" x1="1546.4" y1="782.7" x2="1716.2" y2="684.6"/>
	<ellipse transform="matrix(0.866 -0.5 0.5 0.866 -176.0839 878.6193)" class="st4" cx="1551.5" cy="767.9" rx="1" ry="1"/>
	<ellipse transform="matrix(0.866 -0.5 0.5 0.866 -172.7675 881.936)" class="st4" cx="1559.3" cy="763.4" rx="1" ry="1"/>
	<ellipse transform="matrix(0.866 -0.5 0.5 0.866 -169.6283 885.0747)" class="st4" cx="1566.8" cy="759.1" rx="1" ry="1"/>
	<line class="st3" x1="1572.3" y1="787.8" x2="1635.3" y2="751.5"/>
	<line class="st3" x1="1583.5" y1="807.2" x2="1646.5" y2="770.8"/>
	<line class="st3" x1="1594.7" y1="826.6" x2="1657.7" y2="790.2"/>
	<line class="st3" x1="1645.8" y1="745.4" x2="1708.1" y2="709.5"/>
	<line class="st3" x1="1654.1" y1="759.6" x2="1716.3" y2="723.7"/>
	<line class="st3" x1="1662.3" y1="773.9" x2="1724.5" y2="738"/>
	<line class="st5" x1="1254.6" y1="852.5" x2="1253.6" y2="853"/>
	<path class="st2" d="M1284.5,866.3l72.6,123.2c3,5.4,9.7,7.4,15.1,4.4l2.3-1.3c5.3-3.2,6.9-10.1,3.7-15.3l-78.5-126.1l-3.1-15.2
		l-2.4-21.3c-0.8-3.8-3.3-11.2-8.6-14.9c-8.2-5.8-21.7-7.3-25.6-5.1l16.8,14.4l-0.8,13.1l-7.5,7.8l-9.9,4.1l-17.5-13.8
		c-3.7,11.6,12.2,31.5,12.2,31.5l0.4,0.4c4.4,0.3,25.4,4.8,30.5,13.5"/>
	<line class="st5" x1="1268.6" y1="830" x2="1253.4" y2="851.9"/>
	<line class="st3" x1="1277.6" y1="836.3" x2="1288.1" y2="843"/>
	<line class="st3" x1="1275.8" y1="839.5" x2="1286.2" y2="846.2"/>
	<line class="st3" x1="1273.9" y1="842.6" x2="1284.3" y2="849.3"/>
	<line class="st5" x1="1299.8" y1="851.1" x2="1283.5" y2="864.4"/>
	<line class="st5" x1="1284.9" y1="866.8" x2="1284.2" y2="865.8"/>
	<line class="st2" x1="1547.4" y1="710.1" x2="1652.8" y2="649.3"/>
	<line class="st2" x1="1554.2" y1="732.6" x2="1531.3" y2="693"/>
	<line class="st2" x1="1546.2" y1="737.2" x2="1523.4" y2="697.6"/>
	<line class="st2" x1="1538.2" y1="741.8" x2="1515.4" y2="702.2"/>
	<line class="st2" x1="1522.6" y1="724.4" x2="1517" y2="727.7"/>
	<line class="st2" x1="1668.9" y1="666.4" x2="1646.1" y2="626.8"/>
	<line class="st2" x1="1676.9" y1="661.7" x2="1654.1" y2="622.2"/>
	<line class="st2" x1="1684.9" y1="657.1" x2="1662" y2="617.5"/>
	<line class="st2" x1="1677.6" y1="634.9" x2="1683.3" y2="631.7"/>
	<ellipse transform="matrix(0.866 -0.5 0.5 0.866 -106.1077 871.767)" class="st6" cx="1573.7" cy="633.9" rx="37.2" ry="37.2"/>
	<ellipse transform="matrix(0.866 -0.5 0.5 0.866 -106.1077 871.767)" class="st7" cx="1573.7" cy="633.9" rx="27" ry="27"/>
	<polyline class="st8" points="1544.3,683.4 1528.1,655.3 1525.9,651.6 	"/>
	<polyline class="st9" points="1515.7,641.5 1522.6,653.5 1525.9,651.6 	"/>
	<polyline class="st10" points="1522.3,637.7 1529.2,649.7 1525.9,651.6 1519,639.6 	"/>
	<polyline class="st14" points="1629.4,634.6 1614,607.8 1611.9,604.2 	"/>
	<ellipse transform="matrix(0.866 -0.5 0.5 0.866 -83.4962 884.2512)" class="st12" cx="1608.3" cy="597.9" rx="4.7" ry="7"/>
	<path class="st1" d="M1441.2,63.2l9.8-5.7l2.7,4.7l-7.2,4.1l62.5,104.9c0,0,15.2,1.7,19.1,6.8c3.4,4.4,37.1,53.3,46.6,67.2
		c1.3,1.9,0.8,4.4-1,5.7c-0.1,0.1-0.2,0.1-0.3,0.2l-16.2,9.3l-1,0.6l-16.2,9.4c-2,1.1-4.4,0.5-5.6-1.5c-0.1-0.1-0.1-0.2-0.2-0.3
		c-7.2-15.2-32.8-68.8-34.9-74c-2.5-6,3.6-20,3.6-20l-59.6-106.6l-7.2,4.1l-2.7-4.7l9.8-5.7"/>
	<path class="st2" d="M1464.5,313.9c-30.9,17-61.5,3.3-61.5,3.3l-46.2-80c2.7-21.4,15.3-40.3,34-50.9"/>
	<path class="st2" d="M1463.4,314.5c30.2-18.3,33.6-51.6,33.6-51.6l-46.2-80c-19.9-8.4-42.5-6.9-61.1,4"/>
	<line class="st3" x1="1390.8" y1="186.3" x2="1442.1" y2="275.1"/>
	<path class="st3" d="M1423.1,285.7c-1.1-2.4-1.2-8.2,1.9-8.3l16.1-1.6l-9.8,13.6c-2.5,0.5-6.4-0.6-8-3.4L1423.1,285.7z"/>
	<path class="st3" d="M1461.4,263.6c-1.5-2.2-6.5-5.1-8.2-2.5l-9.4,13.1l16.7-1.7c1.7-1.9,2.6-5.9,1.1-8.6L1461.4,263.6z"/>
	<path class="st2" d="M1539.9,135.9l162.1-93.6c2.1-1.2,4.9-0.5,6.1,1.6l53.7,93.1c1.2,2.1,0.5,4.9-1.6,6.1l-162.1,93.6
		c-2.1,1.2-4.9,0.5-6.1-1.6l-53.7-93.1C1537.1,139.8,1537.8,137.1,1539.9,135.9z"/>
	<line class="st2" x1="1546.4" y1="155.9" x2="1716.2" y2="57.9"/>
	<ellipse transform="matrix(0.866 -0.5 0.5 0.866 137.3062 794.6467)" class="st4" cx="1551.5" cy="141.1" rx="1" ry="1"/>
	<ellipse transform="matrix(0.866 -0.5 0.5 0.866 140.6226 797.9634)" class="st4" cx="1559.3" cy="136.6" rx="1" ry="1"/>
	<ellipse transform="matrix(0.866 -0.5 0.5 0.866 143.7618 801.1021)" class="st4" cx="1566.8" cy="132.3" rx="1" ry="1"/>
	<line class="st3" x1="1572.3" y1="161" x2="1635.3" y2="124.7"/>
	<line class="st3" x1="1583.5" y1="180.4" x2="1646.5" y2="144.1"/>
	<line class="st3" x1="1594.7" y1="199.8" x2="1657.7" y2="163.5"/>
	<line class="st3" x1="1645.8" y1="118.6" x2="1708.1" y2="82.7"/>
	<line class="st3" x1="1654.1" y1="132.9" x2="1716.3" y2="96.9"/>
	<line class="st3" x1="1662.3" y1="147.1" x2="1724.5" y2="111.2"/>
	<line class="st5" x1="1254.6" y1="225.7" x2="1253.6" y2="226.2"/>
	<path class="st2" d="M1284.5,239.5l72.6,123.2c3,5.4,9.7,7.4,15.1,4.4l2.3-1.3c5.3-3.2,6.9-10.1,3.7-15.3l-78.5-126.1l-3.1-15.2
		l-2.4-21.3c-0.8-3.8-3.3-11.2-8.6-14.9c-8.2-5.8-21.7-7.3-25.6-5.1l16.8,14.4l-0.8,13.1l-7.5,7.8l-9.9,4.1l-17.5-13.8
		c-3.7,11.6,12.2,31.5,12.2,31.5l0.4,0.4c4.4,0.3,25.4,4.8,30.5,13.5"/>
	<line class="st5" x1="1268.6" y1="203.3" x2="1253.4" y2="225.1"/>
	<line class="st3" x1="1277.6" y1="209.6" x2="1288.1" y2="216.3"/>
	<line class="st3" x1="1275.8" y1="212.7" x2="1286.2" y2="219.4"/>
	<line class="st3" x1="1273.9" y1="215.8" x2="1284.3" y2="222.5"/>
	<line class="st5" x1="1299.8" y1="224.3" x2="1283.5" y2="237.7"/>
	<line class="st5" x1="1284.9" y1="240.1" x2="1284.2" y2="239"/>
	<line class="st2" x1="1547.4" y1="83.3" x2="1652.8" y2="22.5"/>
	<line class="st2" x1="1554.2" y1="105.8" x2="1531.3" y2="66.2"/>
	<line class="st2" x1="1546.2" y1="110.4" x2="1523.4" y2="70.8"/>
	<line class="st2" x1="1538.2" y1="115" x2="1515.4" y2="75.5"/>
	<line class="st2" x1="1522.6" y1="97.7" x2="1517" y2="100.9"/>
	<line class="st2" x1="1668.9" y1="39.6" x2="1646.1" y2="0"/>
	<line class="st2" x1="1676.9" y1="35" x2="1654.1" y2="-4.6"/>
	<line class="st2" x1="1684.9" y1="30.3" x2="1662" y2="-9.2"/>
	<ellipse transform="matrix(0.866 -0.5 0.5 0.866 207.2824 787.7944)" class="st6" cx="1573.7" cy="7.1" rx="37.2" ry="37.2"/>
	<ellipse transform="matrix(0.866 -0.5 0.5 0.866 207.2824 787.7944)" class="st7" cx="1573.7" cy="7.1" rx="27" ry="27"/>
	<polyline class="st8" points="1544.3,56.7 1528.1,28.6 1525.9,24.8 	"/>
	<polyline class="st9" points="1515.7,14.7 1522.6,26.7 1525.9,24.8 	"/>
	<polyline class="st10" points="1522.3,10.9 1529.2,22.9 1525.9,24.8 1519,12.8 	"/>
	<ellipse transform="matrix(0.866 -0.5 0.5 0.866 -357.1211 631.9017)" class="st15" cx="1000.6" cy="982.3" rx="35.9" ry="35.9"/>
	<ellipse transform="matrix(0.866 -0.5 0.5 0.866 -357.1211 631.9017)" class="st16" cx="1000.6" cy="982.3" rx="26.1" ry="26.1"/>
	<polyline class="st17" points="972.2,1030.3 956.5,1003.1 954.4,999.5 	"/>
	<polyline class="st18" points="944.5,989.7 951.2,1001.3 954.4,999.5 	"/>
	<polyline class="st19" points="950.9,986 957.6,997.6 954.4,999.5 947.7,987.9 	"/>
	<polyline class="st20" points="1054.5,982.9 1039.6,957.1 1037.6,953.7 	"/>
	<ellipse transform="matrix(0.866 -0.5 0.5 0.866 -335.2538 643.9759)" class="st21" cx="1034" cy="947.6" rx="4.5" ry="6.8"/>
	<path class="st22" d="M1122.2,1041.6l-4.6-8l3.9-2.2l3.4,5.8l85.2-50.8c0,0,1.4-12.3,5.5-15.5c3.6-2.8,43.3-30.1,54.6-37.9
		c1.5-1,3.6-0.7,4.6,0.9c0,0.1,0.1,0.1,0.1,0.2l7.6,13.2l0.5,0.8l7.6,13.2c0.9,1.6,0.4,3.6-1.2,4.5c-0.1,0-0.2,0.1-0.2,0.1
		c-12.3,5.9-55.9,26.6-60.1,28.3c-4.9,2-16.2-3-16.2-3l-86.6,48.4l3.4,5.8l-3.9,2.2l-4.6-8"/>
	<path class="st23" d="M1098.7,1152.2c-18.9,10.4-37.6,2-37.6,2l-28.2-48.9c1.6-13.1,9.3-24.6,20.8-31.1"/>
	<path class="st23" d="M1098.1,1152.6c18.4-11.2,20.5-31.5,20.5-31.5l-28.2-48.9c-12.1-5.1-26-4.2-37.3,2.4"/>
	<line class="st24" x1="1053.7" y1="1074.2" x2="1085.1" y2="1128.5"/>
	<path class="st24" d="M1073.4,1135c-0.7-1.5-0.7-5,1.1-5.1l9.8-1l-6,8.3c-1.9,0.3-3.8-0.5-4.9-2L1073.4,1135z"/>
	<path class="st24" d="M1096.9,1121.4c-0.9-1.3-4-3.1-5-1.6l-5.7,8l10.2-1c1.2-1.5,1.5-3.5,0.7-5.2L1096.9,1121.4z"/>
	<path class="st25" d="M1047.4,913.8l156.8-90.5c2.1-1.2,4.7-0.5,5.9,1.6l52,90c1.2,2.1,0.5,4.7-1.6,5.9l-156.8,90.5
		c-2.1,1.2-4.7,0.5-5.9-1.6l-52-90C1044.7,917.7,1045.4,915,1047.4,913.8z"/>
	<line class="st25" x1="1053.6" y1="933.2" x2="1217.9" y2="838.4"/>
	<ellipse transform="matrix(0.866 -0.5 0.5 0.866 -317.6302 652.4072)" class="st26" cx="1058.6" cy="918.9" rx="0.9" ry="0.9"/>
	<ellipse transform="matrix(0.866 -0.5 0.5 0.866 -314.4223 655.6141)" class="st26" cx="1066.2" cy="914.5" rx="0.9" ry="0.9"/>
	<ellipse transform="matrix(0.866 -0.5 0.5 0.866 -311.3868 658.65)" class="st26" cx="1073.4" cy="910.4" rx="0.9" ry="0.9"/>
	<line class="st27" x1="1078.8" y1="938.2" x2="1139.7" y2="903"/>
	<line class="st27" x1="1089.6" y1="956.9" x2="1150.5" y2="921.8"/>
	<line class="st27" x1="1100.4" y1="975.7" x2="1161.3" y2="940.5"/>
	<line class="st27" x1="1149.8" y1="897.1" x2="1210" y2="862.4"/>
	<line class="st27" x1="1157.8" y1="910.9" x2="1218" y2="876.2"/>
	<line class="st27" x1="1165.8" y1="924.7" x2="1226" y2="890"/>
	<line class="st28" x1="902.9" y1="1052.5" x2="902" y2="1053"/>
	<path class="st25" d="M931.9,1065.9l70.2,119.1c2.9,5.2,9.4,7.1,14.6,4.3l2.2-1.3c5.1-3.1,6.7-9.7,3.6-14.8l-75.9-122l-3-14.7
		l-2.3-20.6c-0.8-3.7-3.2-10.8-8.3-14.4c-8-5.6-20.9-7.1-24.7-4.9l16.2,13.9l-0.8,12.7l-7.3,7.5l-9.6,4l-17-13.4
		c-3.6,11.2,11.8,30.5,11.8,30.5l0.4,0.4c4.3,0.3,24.6,4.6,29.5,13.1"/>
	<line class="st28" x1="932.2" y1="1066.4" x2="931.6" y2="1065.4"/>
	<line class="st28" x1="916.5" y1="1030.8" x2="901.7" y2="1051.9"/>
	<line class="st27" x1="925.2" y1="1036.9" x2="935.3" y2="1043.4"/>
	<line class="st27" x1="923.4" y1="1040" x2="933.5" y2="1046.4"/>
	<line class="st27" x1="921.6" y1="1043" x2="931.7" y2="1049.5"/>
	<line class="st28" x1="946.7" y1="1051.2" x2="930.8" y2="1064.1"/>
	<line class="st25" x1="1177.1" y1="1075.1" x2="1279" y2="1016.2"/>
	<line class="st25" x1="1183.6" y1="1096.8" x2="1161.6" y2="1058.6"/>
	<line class="st25" x1="1175.9" y1="1101.3" x2="1153.8" y2="1063"/>
	<line class="st25" x1="1168.2" y1="1105.8" x2="1146.1" y2="1067.5"/>
	<line class="st25" x1="1153.1" y1="1088.9" x2="1147.6" y2="1092.1"/>
	<line class="st25" x1="1294.6" y1="1032.8" x2="1272.5" y2="994.5"/>
	<line class="st25" x1="1302.3" y1="1028.3" x2="1280.2" y2="990"/>
	<line class="st25" x1="1310.1" y1="1023.8" x2="1288" y2="985.6"/>
	<line class="st25" x1="1303" y1="1002.4" x2="1308.5" y2="999.2"/>
	<ellipse transform="matrix(0.866 -0.5 0.5 0.866 -240.8234 952.1925)" class="st15" cx="1656.4" cy="925.5" rx="35.9" ry="35.9"/>
	<ellipse transform="matrix(0.866 -0.5 0.5 0.866 -240.8234 952.1925)" class="st16" cx="1656.4" cy="925.5" rx="26.1" ry="26.1"/>
	<polyline class="st17" points="1628,973.4 1612.3,946.2 1610.2,942.6 	"/>
	<polyline class="st18" points="1600.3,932.8 1607,944.5 1610.2,942.6 	"/>
	<polyline class="st19" points="1606.7,929.1 1613.4,940.8 1610.2,942.6 1603.5,931 	"/>
	<polyline class="st20" points="1710.3,926.1 1695.4,900.2 1693.4,896.8 	"/>
	<ellipse transform="matrix(0.866 -0.5 0.5 0.866 -218.9554 964.2666)" class="st21" cx="1689.9" cy="890.7" rx="4.5" ry="6.8"/>
	<path class="st22" d="M1778,984.7l-4.6-8l3.9-2.2l3.4,5.8l85.2-50.8c0,0,1.4-12.3,5.5-15.5c3.6-2.8,43.3-30.1,54.6-37.9
		c1.5-1,3.6-0.7,4.6,0.9c0,0.1,0.1,0.1,0.1,0.2l7.6,13.2l0.5,0.8l7.6,13.2c0.9,1.6,0.4,3.6-1.2,4.5c-0.1,0-0.2,0.1-0.2,0.1
		c-12.3,5.9-55.9,26.6-60.1,28.3c-4.9,2-16.2-3-16.2-3l-86.6,48.4l3.4,5.8l-3.9,2.2l-4.6-8"/>
	<path class="st23" d="M1754.6,1095.3c-18.9,10.4-37.6,2-37.6,2l-28.2-48.9c1.6-13.1,9.3-24.6,20.8-31.1"/>
	<path class="st23" d="M1753.9,1095.7c18.4-11.2,20.5-31.5,20.5-31.5l-28.2-48.9c-12.1-5.1-26-4.2-37.3,2.4"/>
	<line class="st24" x1="1709.6" y1="1017.3" x2="1740.9" y2="1071.6"/>
	<path class="st24" d="M1729.3,1078.1c-0.7-1.5-0.7-5,1.1-5.1l9.8-1l-6,8.3c-1.9,0.3-3.8-0.5-4.9-2L1729.3,1078.1z"/>
	<path class="st24" d="M1752.7,1064.6c-0.9-1.3-4-3.1-5-1.6l-5.7,8l10.2-1c1.2-1.5,1.5-3.5,0.7-5.2L1752.7,1064.6z"/>
	<path class="st25" d="M1703.3,857l156.8-90.5c2.1-1.2,4.7-0.5,5.9,1.6l52,90c1.2,2.1,0.5,4.7-1.6,5.9l-156.8,90.5
		c-2.1,1.2-4.7,0.5-5.9-1.6l-52-90C1700.5,860.8,1701.2,858.2,1703.3,857z"/>
	<line class="st25" x1="1709.5" y1="876.4" x2="1873.7" y2="781.5"/>
	<ellipse transform="matrix(0.866 -0.5 0.5 0.866 -201.3319 972.6979)" class="st26" cx="1714.4" cy="862" rx="0.9" ry="0.9"/>
	<ellipse transform="matrix(0.866 -0.5 0.5 0.866 -198.1239 975.9055)" class="st26" cx="1722" cy="857.7" rx="0.9" ry="0.9"/>
	<ellipse transform="matrix(0.866 -0.5 0.5 0.866 -195.0885 978.9408)" class="st26" cx="1729.2" cy="853.5" rx="0.9" ry="0.9"/>
	<line class="st27" x1="1734.6" y1="881.3" x2="1795.5" y2="846.2"/>
	<line class="st27" x1="1745.4" y1="900.1" x2="1806.3" y2="864.9"/>
	<line class="st27" x1="1756.2" y1="918.8" x2="1817.1" y2="883.6"/>
	<line class="st27" x1="1805.7" y1="840.3" x2="1865.9" y2="805.5"/>
	<line class="st27" x1="1813.6" y1="854.1" x2="1873.8" y2="819.3"/>
	<line class="st27" x1="1821.6" y1="867.9" x2="1881.8" y2="833.1"/>
	<line class="st28" x1="1558.7" y1="995.7" x2="1557.8" y2="996.2"/>
	<path class="st25" d="M1587.7,1009l70.2,119.1c2.9,5.2,9.4,7.1,14.6,4.3l2.2-1.3c5.1-3.1,6.7-9.7,3.6-14.8l-75.9-122l-3-14.7
		l-2.3-20.6c-0.8-3.7-3.2-10.8-8.3-14.4c-8-5.6-20.9-7.1-24.7-4.9l16.2,13.9l-0.8,12.7l-7.3,7.5l-9.6,4l-17-13.4
		c-3.6,11.2,11.8,30.5,11.8,30.5l0.4,0.4c4.3,0.3,24.6,4.6,29.5,13.1"/>
	<line class="st28" x1="1588" y1="1009.5" x2="1587.4" y2="1008.5"/>
	<line class="st28" x1="1572.3" y1="974" x2="1557.6" y2="995"/>
	<line class="st27" x1="1581" y1="980" x2="1591.1" y2="986.5"/>
	<line class="st27" x1="1579.2" y1="983.1" x2="1589.3" y2="989.6"/>
	<line class="st27" x1="1577.4" y1="986.1" x2="1587.5" y2="992.6"/>
	<line class="st28" x1="1602.5" y1="994.3" x2="1586.7" y2="1007.2"/>
	<line class="st25" x1="1832.9" y1="1018.2" x2="1934.9" y2="959.4"/>
	<line class="st25" x1="1839.5" y1="1040" x2="1817.4" y2="1001.7"/>
	<line class="st25" x1="1831.7" y1="1044.4" x2="1809.6" y2="1006.1"/>
	<line class="st25" x1="1824" y1="1048.9" x2="1801.9" y2="1010.6"/>
	<line class="st25" x1="1808.9" y1="1032.1" x2="1803.5" y2="1035.2"/>
	<line class="st25" x1="1950.4" y1="975.9" x2="1928.3" y2="937.6"/>
	<line class="st25" x1="1958.1" y1="971.4" x2="1936" y2="933.2"/>
	<line class="st25" x1="1965.9" y1="967" x2="1943.8" y2="928.7"/>
	<line class="st25" x1="1958.9" y1="945.5" x2="1964.3" y2="942.4"/>
	<ellipse transform="matrix(0.866 -0.5 0.5 0.866 139.6961 929.9904)" class="st15" cx="1805.2" cy="204.3" rx="35.9" ry="35.9"/>
	<ellipse transform="matrix(0.866 -0.5 0.5 0.866 139.6961 929.9904)" class="st16" cx="1805.2" cy="204.3" rx="26.1" ry="26.1"/>
	<polyline class="st17" points="1776.8,252.2 1761.2,225.1 1759.1,221.5 	"/>
	<polyline class="st18" points="1749.2,211.7 1755.9,223.3 1759.1,221.5 	"/>
	<polyline class="st19" points="1755.5,208 1762.3,219.6 1759.1,221.5 1752.3,209.8 	"/>
	<polyline class="st20" points="1859.1,204.9 1844.2,179.1 1842.2,175.6 	"/>
	<ellipse transform="matrix(0.866 -0.5 0.5 0.866 161.5641 942.0645)" class="st21" cx="1838.7" cy="169.5" rx="4.5" ry="6.8"/>
	<path class="st22" d="M1926.8,263.6l-4.6-8l3.9-2.2l3.4,5.8l85.2-50.8c0,0,1.4-12.3,5.5-15.5c3.6-2.8,43.3-30.1,54.6-37.9
		c1.5-1,3.6-0.7,4.6,0.9c0,0.1,0.1,0.1,0.1,0.2l7.6,13.2l0.5,0.8l7.6,13.2c0.9,1.6,0.4,3.6-1.2,4.5c-0.1,0-0.2,0.1-0.2,0.1
		c-12.3,5.9-55.9,26.6-60.1,28.3c-4.9,2-16.2-3-16.2-3l-86.6,48.4l3.4,5.8l-3.9,2.2l-4.6-8"/>
	<path class="st23" d="M1903.4,374.1c-18.9,10.4-37.6,2-37.6,2l-28.2-48.9c1.6-13.1,9.3-24.6,20.8-31.1"/>
	<path class="st23" d="M1902.7,374.5c18.4-11.2,20.5-31.5,20.5-31.5l-28.2-48.9c-12.1-5.1-26-4.2-37.3,2.4"/>
	<line class="st24" x1="1858.4" y1="296.2" x2="1889.7" y2="350.5"/>
	<path class="st24" d="M1878.1,356.9c-0.7-1.5-0.7-5,1.1-5.1l9.8-1l-6,8.3c-1.9,0.3-3.8-0.5-4.9-2L1878.1,356.9z"/>
	<path class="st24" d="M1901.5,343.4c-0.9-1.3-4-3.1-5-1.6l-5.7,8l10.2-1c1.2-1.5,1.5-3.5,0.7-5.2L1901.5,343.4z"/>
	<path class="st25" d="M1852.1,135.8l156.8-90.5c2.1-1.2,4.7-0.5,5.9,1.6l52,90c1.2,2.1,0.5,4.7-1.6,5.9l-156.8,90.5
		c-2.1,1.2-4.7,0.5-5.9-1.6l-52-90C1849.3,139.7,1850,137,1852.1,135.8z"/>
	<line class="st25" x1="1858.3" y1="155.2" x2="2022.6" y2="60.4"/>
	<ellipse transform="matrix(0.866 -0.5 0.5 0.866 179.1876 950.4958)" class="st26" cx="1863.2" cy="140.9" rx="0.9" ry="0.9"/>
	<ellipse transform="matrix(0.866 -0.5 0.5 0.866 182.3949 953.7029)" class="st26" cx="1870.8" cy="136.5" rx="0.9" ry="0.9"/>
	<ellipse transform="matrix(0.866 -0.5 0.5 0.866 185.4305 956.7389)" class="st26" cx="1878" cy="132.4" rx="0.9" ry="0.9"/>
	<line class="st27" x1="1883.4" y1="160.2" x2="1944.3" y2="125"/>
	<line class="st27" x1="1894.2" y1="178.9" x2="1955.1" y2="143.7"/>
	<line class="st27" x1="1905.1" y1="197.6" x2="1966" y2="162.5"/>
	<line class="st27" x1="1954.5" y1="119.1" x2="2014.7" y2="84.4"/>
	<line class="st27" x1="1962.4" y1="132.9" x2="2022.6" y2="98.2"/>
	<line class="st27" x1="1970.4" y1="146.7" x2="2030.6" y2="111.9"/>
	<line class="st28" x1="1707.5" y1="274.5" x2="1706.6" y2="275"/>
	<path class="st25" d="M1736.5,287.9l70.2,119.1c2.9,5.2,9.4,7.1,14.6,4.3l2.2-1.3c5.1-3.1,6.7-9.7,3.6-14.8l-75.9-122l-3-14.7
		l-2.3-20.6c-0.8-3.7-3.2-10.8-8.3-14.4c-8-5.6-20.9-7.1-24.7-4.9l16.2,13.9l-0.8,12.7l-7.3,7.5l-9.6,4l-17-13.4
		c-3.6,11.2,11.8,30.5,11.8,30.5l0.4,0.4c4.3,0.3,24.6,4.6,29.5,13.1"/>
	<line class="st28" x1="1736.8" y1="288.4" x2="1736.2" y2="287.3"/>
	<line class="st28" x1="1721.2" y1="252.8" x2="1706.4" y2="273.9"/>
	<line class="st27" x1="1729.8" y1="258.9" x2="1740" y2="265.4"/>
	<line class="st27" x1="1728" y1="261.9" x2="1738.1" y2="268.4"/>
	<line class="st27" x1="1726.2" y1="265" x2="1736.3" y2="271.4"/>
	<line class="st28" x1="1751.3" y1="273.2" x2="1735.5" y2="286.1"/>
	<line class="st25" x1="1981.8" y1="297.1" x2="2083.7" y2="238.2"/>
	<line class="st25" x1="1988.3" y1="318.8" x2="1966.2" y2="280.5"/>
	<line class="st25" x1="1980.6" y1="323.3" x2="1958.5" y2="285"/>
	<line class="st25" x1="1972.8" y1="327.7" x2="1950.7" y2="289.5"/>
	<line class="st25" x1="1957.8" y1="310.9" x2="1952.3" y2="314.1"/>
	<line class="st25" x1="2099.2" y1="254.7" x2="2077.1" y2="216.5"/>
	<line class="st25" x1="2107" y1="250.3" x2="2084.9" y2="212"/>
	<line class="st25" x1="2114.7" y1="245.8" x2="2092.6" y2="207.5"/>
	<line class="st25" x1="2107.7" y1="224.4" x2="2113.2" y2="221.2"/>
	
		<ellipse transform="matrix(0.866 -0.5 0.5 0.866 -409.2288 1068.1252)" class="st29" cx="1788.5" cy="1297.7" rx="63.9" ry="63.9"/>
	
		<ellipse transform="matrix(0.866 -0.5 0.5 0.866 -409.2288 1068.1254)" class="st30" cx="1788.5" cy="1297.7" rx="46.5" ry="46.5"/>
	<polyline class="st31" points="1688.8,1310.8 1700.7,1331.5 1706.4,1328.2 	"/>
	<polyline class="st32" points="1700.1,1304.2 1712.1,1324.9 1706.4,1328.2 1694.5,1307.5 	"/>
	<polyline class="st33" points="1884.4,1298.7 1857.8,1252.7 1854.2,1246.5 	"/>
	<ellipse transform="matrix(0.866 -0.5 0.5 0.866 -370.3301 1089.6033)" class="st34" cx="1848.1" cy="1235.8" rx="8" ry="12"/>
	<path class="st35" d="M1642,1187.1l124-71.6c1.6-0.9,3.7-0.4,4.7,1.3l41.1,71.2c0.9,1.6,0.4,3.7-1.3,4.7l-124,71.6
		c-1.6,0.9-3.7,0.4-4.7-1.3l-41.1-71.2C1639.8,1190.1,1640.4,1188.1,1642,1187.1z"/>
	<line class="st35" x1="1646.9" y1="1202.5" x2="1776.8" y2="1127.5"/>
	<ellipse transform="matrix(0.866 -0.5 0.5 0.866 -374.3864 985.0034)" class="st36" cx="1650.8" cy="1191.1" rx="0.7" ry="0.7"/>
	<ellipse transform="matrix(0.866 -0.5 0.5 0.866 -371.8503 987.5383)" class="st36" cx="1656.8" cy="1187.7" rx="0.7" ry="0.7"/>
	<ellipse transform="matrix(0.866 -0.5 0.5 0.866 -369.4508 989.939)" class="st36" cx="1662.5" cy="1184.4" rx="0.7" ry="0.7"/>
	<line class="st37" x1="1666.8" y1="1206.4" x2="1714.9" y2="1178.6"/>
	<line class="st37" x1="1675.4" y1="1221.2" x2="1723.5" y2="1193.4"/>
	<line class="st37" x1="1683.9" y1="1236" x2="1732.1" y2="1208.2"/>
	<line class="st37" x1="1723" y1="1173.9" x2="1770.6" y2="1146.4"/>
	<line class="st37" x1="1729.3" y1="1184.8" x2="1776.9" y2="1157.3"/>
	<line class="st37" x1="1735.6" y1="1195.7" x2="1783.2" y2="1168.2"/>
	<path class="st38" d="M1470.8,1313.4l-4.3-7.5l3.6-2.1l3.2,5.5l80.2-47.8c0,0,1.3-11.6,5.2-14.6c3.4-2.6,40.8-28.4,51.4-35.6
		c1.4-1,3.4-0.6,4.3,0.8c0,0.1,0.1,0.1,0.1,0.2l7.1,12.4l0.4,0.8l7.1,12.4c0.9,1.5,0.4,3.4-1.1,4.3c-0.1,0-0.1,0.1-0.2,0.1
		c-11.6,5.5-52.6,25-56.6,26.7c-4.6,1.9-15.3-2.8-15.3-2.8l-81.5,45.5l3.2,5.5l-3.6,2.1l-4.3-7.5"/>
	<path class="st39" d="M1628.5,1409.1c-29.6,16.3-58.7,3.2-58.7,3.2l-44.1-76.5c2.6-20.4,14.6-38.5,32.5-48.7"/>
	<path class="st39" d="M1627.4,1409.7c28.8-17.5,32.1-49.3,32.1-49.3l-44.1-76.5c-19-8-40.6-6.6-58.4,3.8"/>
	<line class="st40" x1="1558.1" y1="1287.2" x2="1607.1" y2="1372.1"/>
	<path class="st39" d="M1450.1,1387.4l69.4,117.7c2.8,5.2,9.3,7,14.5,4.2l2.2-1.3c5-3.1,6.6-9.6,3.6-14.6l-75-120.6l-3-14.5
		l-2.3-20.3c-0.7-3.6-3.2-10.7-8.2-14.2c-7.9-5.6-20.7-7-24.4-4.8l16,13.7l-0.8,12.5l-7.2,7.5l-9.5,3.9l-16.8-13.2
		c-3.6,11.1,11.6,30.1,11.6,30.1l0.4,0.4c4.2,0.3,24.3,4.6,29.1,12.9"/>
	<ellipse transform="matrix(0.866 -0.5 0.5 0.866 -57.149 240.4037)" class="st29" cx="420" cy="226.8" rx="63.9" ry="63.9"/>
	<ellipse transform="matrix(0.866 -0.5 0.5 0.866 -57.149 240.4037)" class="st30" cx="420" cy="226.8" rx="46.5" ry="46.5"/>
	<polyline class="st41" points="369.5,312.1 341.6,263.8 337.9,257.3 	"/>
	<polyline class="st31" points="320.3,239.9 332.2,260.6 337.9,257.3 	"/>
	<polyline class="st32" points="331.6,233.4 343.6,254 337.9,257.3 326,236.6 	"/>
	<polyline class="st42" points="515.8,227.9 488.8,181 485.2,174.8 	"/>
	<ellipse transform="matrix(0.866 -0.5 0.5 0.866 -18.2505 261.8811)" class="st34" cx="479.6" cy="165" rx="8" ry="12"/>
	<path class="st35" d="M273.5,116.3l124-71.6c1.6-0.9,3.7-0.4,4.7,1.3l41.1,71.2c0.9,1.6,0.4,3.7-1.3,4.7l-124,71.6
		c-1.6,0.9-3.7,0.4-4.7-1.3l-41.1-71.2C271.3,119.3,271.9,117.2,273.5,116.3z"/>
	<line class="st35" x1="278.4" y1="131.6" x2="408.3" y2="56.6"/>
	<ellipse transform="matrix(0.866 -0.5 0.5 0.866 -22.3068 157.2812)" class="st36" cx="282.3" cy="120.3" rx="0.7" ry="0.7"/>
	<ellipse transform="matrix(0.866 -0.5 0.5 0.866 -19.7712 159.8169)" class="st36" cx="288.3" cy="116.8" rx="0.7" ry="0.7"/>
	<ellipse transform="matrix(0.866 -0.5 0.5 0.866 -17.371 162.2174)" class="st36" cx="294" cy="113.5" rx="0.7" ry="0.7"/>
	<line class="st37" x1="298.3" y1="135.5" x2="346.4" y2="107.7"/>
	<line class="st37" x1="306.8" y1="150.3" x2="355" y2="122.5"/>
	<line class="st37" x1="315.4" y1="165.1" x2="363.5" y2="137.4"/>
	<line class="st37" x1="354.5" y1="103.1" x2="402.1" y2="75.6"/>
	<line class="st37" x1="360.8" y1="114" x2="408.4" y2="86.5"/>
	<line class="st37" x1="367.1" y1="124.9" x2="414.7" y2="97.4"/>
	<line class="st39" x1="212.7" y1="382.7" x2="313.4" y2="324.5"/>
	<line class="st39" x1="219.1" y1="404.2" x2="197.3" y2="366.3"/>
	<line class="st39" x1="211.5" y1="408.6" x2="189.7" y2="370.8"/>
	<line class="st39" x1="203.9" y1="413" x2="182" y2="375.2"/>
	<line class="st39" x1="189" y1="396.4" x2="183.6" y2="399.5"/>
	<line class="st39" x1="328.8" y1="340.9" x2="306.9" y2="303"/>
	<line class="st39" x1="336.4" y1="336.5" x2="314.6" y2="298.6"/>
	<line class="st39" x1="344.1" y1="332" x2="322.2" y2="294.2"/>
	<line class="st39" x1="337.1" y1="310.8" x2="342.5" y2="307.7"/>
	<path class="st38" d="M102.2,242.5l-4.3-7.5l3.6-2.1l3.2,5.5l80.2-47.8c0,0,1.3-11.6,5.2-14.6c3.4-2.6,40.8-28.4,51.4-35.6
		c1.4-1,3.4-0.6,4.3,0.8c0,0.1,0.1,0.1,0.1,0.2l7.1,12.4l0.4,0.8l7.1,12.4c0.9,1.5,0.4,3.4-1.1,4.3c-0.1,0-0.1,0.1-0.2,0.1
		c-11.6,5.5-52.6,25-56.6,26.7c-4.6,1.9-15.3-2.8-15.3-2.8L106,240.7l3.2,5.5l-3.6,2.1l-4.3-7.5"/>
	<path class="st39" d="M260,338.3c-29.6,16.3-58.7,3.2-58.7,3.2L157.1,265c2.6-20.4,14.6-38.5,32.5-48.7"/>
	<path class="st39" d="M258.9,338.9c28.9-17.5,32.1-49.3,32.1-49.3l-44.1-76.5c-19-8-40.6-6.6-58.4,3.8"/>
	<line class="st40" x1="189.6" y1="216.3" x2="238.6" y2="301.3"/>
	<path class="st40" d="M220.4,311.4c-1.1-2.3-1.1-7.8,1.8-8l15.4-1.5l-9.4,13c-2.9,0.5-5.9-0.8-7.6-3.2L220.4,311.4z"/>
	<path class="st40" d="M257,290.2c-1.5-2.1-6.2-4.9-7.8-2.4l-9,12.6l15.9-1.6c1.9-2.3,2.3-5.5,1-8.2L257,290.2z"/>
	<path class="st39" d="M81.6,316.6L151,434.3c2.8,5.2,9.3,7,14.5,4.2l2.2-1.3c5-3.1,6.6-9.6,3.6-14.6L96.2,302l-3-14.5L91,267.2
		c-0.7-3.6-3.2-10.7-8.2-14.2c-7.9-5.6-20.7-7-24.4-4.8l16,13.7l-0.8,12.5l-7.2,7.5l-9.5,3.9l-16.8-13.2
		c-3.6,11.1,11.6,30.1,11.6,30.1l0.4,0.4c4.2,0.3,24.3,4.6,29.1,12.9"/>
	<line class="st43" x1="81.9" y1="317.1" x2="81.3" y2="316"/>
	<line class="st43" x1="66.4" y1="281.9" x2="51.8" y2="302.7"/>
	<line class="st40" x1="75" y1="287.9" x2="85" y2="294.3"/>
	<line class="st40" x1="73.2" y1="290.9" x2="83.2" y2="297.3"/>
	<line class="st40" x1="71.4" y1="293.9" x2="81.4" y2="300.3"/>
	<line class="st43" x1="96.2" y1="302" x2="80.6" y2="314.8"/>
	<path class="st1" d="M-189.8,74.1l9.8-5.7l2.7,4.7l-7.2,4.1l62.5,104.9c0,0,15.2,1.7,19.1,6.8c3.4,4.4,37.1,53.3,46.6,67.2
		c1.3,1.9,0.8,4.4-1,5.7c-0.1,0.1-0.2,0.1-0.3,0.2l-16.2,9.3l-1,0.6l-16.2,9.3c-2,1.1-4.4,0.5-5.6-1.5c-0.1-0.1-0.1-0.2-0.2-0.3
		c-7.2-15.2-32.8-68.8-34.9-74c-2.5-6,3.6-20,3.6-20L-187.4,79l-7.2,4.1l-2.7-4.7l9.8-5.7"/>
	<path class="st2" d="M-91.1,146.8L71,53.2c2.1-1.2,4.9-0.5,6.1,1.6l53.7,93.1c1.2,2.1,0.5,4.9-1.6,6.1l-162.1,93.6
		c-2.1,1.2-4.9,0.5-6.1-1.6l-53.7-93.1C-94,150.7-93.3,148-91.1,146.8z"/>
	<line class="st2" x1="-84.7" y1="166.8" x2="85.2" y2="68.7"/>
	<ellipse transform="matrix(0.866 -0.5 0.5 0.866 -86.6623 -19.4344)" class="st4" cx="-79.6" cy="152" rx="1" ry="1"/>
	<ellipse transform="matrix(0.866 -0.5 0.5 0.866 -83.3459 -16.1178)" class="st4" cx="-71.7" cy="147.5" rx="1" ry="1"/>
	<ellipse transform="matrix(0.866 -0.5 0.5 0.866 -80.2067 -12.9791)" class="st4" cx="-64.3" cy="143.2" rx="1" ry="1"/>
	<line class="st3" x1="-58.7" y1="171.9" x2="4.2" y2="135.6"/>
	<line class="st3" x1="-47.5" y1="191.3" x2="15.4" y2="155"/>
	<line class="st3" x1="-36.4" y1="210.7" x2="26.6" y2="174.3"/>
	<line class="st3" x1="14.8" y1="129.5" x2="77" y2="93.6"/>
	<line class="st3" x1="23" y1="143.8" x2="85.2" y2="107.8"/>
	<line class="st3" x1="31.2" y1="158" x2="93.5" y2="122.1"/>
	<line class="st2" x1="-83.6" y1="94.2" x2="21.7" y2="33.4"/>
	<line class="st2" x1="-76.9" y1="116.7" x2="-99.7" y2="77.1"/>
	<line class="st2" x1="-84.9" y1="121.3" x2="-107.7" y2="81.7"/>
	<line class="st2" x1="37.8" y1="50.5" x2="15" y2="10.9"/>
	<line class="st2" x1="45.8" y1="45.8" x2="23" y2="6.3"/>
	<line class="st2" x1="53.8" y1="41.2" x2="31" y2="1.7"/>
	<line class="st2" x1="46.6" y1="19" x2="52.2" y2="15.8"/>
	<ellipse transform="matrix(0.866 -0.5 0.5 0.866 -16.6855 -26.2869)" class="st6" cx="-57.4" cy="18" rx="37.2" ry="37.2"/>
	<ellipse transform="matrix(0.866 -0.5 0.5 0.866 -16.6855 -26.2869)" class="st7" cx="-57.4" cy="18" rx="27" ry="27"/>
	<polyline class="st8" points="-1.7,18.6 -17.9,-9.5 -20.1,-13.2 	"/>
	<ellipse transform="matrix(0.866 -0.5 0.5 0.866 210.7388 702.9355)" class="st29" cx="1417.1" cy="-41.8" rx="63.9" ry="63.9"/>
	<polyline class="st41" points="1366.6,43.5 1338.7,-4.8 1334.9,-11.3 	"/>
	<line class="st39" x1="1209.7" y1="114.1" x2="1310.4" y2="55.9"/>
	<line class="st39" x1="1216.2" y1="135.5" x2="1194.3" y2="97.7"/>
	<line class="st39" x1="1208.5" y1="140" x2="1186.7" y2="102.1"/>
	<line class="st39" x1="1200.9" y1="144.4" x2="1179.1" y2="106.5"/>
	<line class="st39" x1="1186" y1="127.8" x2="1180.6" y2="130.9"/>
	<line class="st39" x1="1325.8" y1="72.3" x2="1304" y2="34.4"/>
	<line class="st39" x1="1333.5" y1="67.8" x2="1311.6" y2="30"/>
	<line class="st39" x1="1341.1" y1="63.4" x2="1319.3" y2="25.6"/>
	<line class="st39" x1="1334.2" y1="42.2" x2="1339.6" y2="39.1"/>
	<path class="st39" d="M1257,69.7c-29.6,16.3-58.7,3.2-58.7,3.2l-44.1-76.5c2.6-20.4,14.6-38.5,32.5-48.7"/>
	<path class="st39" d="M1256,70.3c28.8-17.5,32.1-49.3,32.1-49.3l-44.1-76.5c-19-8-40.6-6.6-58.4,3.8"/>
	<line class="st40" x1="1186.6" y1="-52.3" x2="1235.6" y2="32.6"/>
	<path class="st40" d="M1217.4,42.7c-1.1-2.3-1.1-7.8,1.8-8l15.4-1.5l-9.4,13c-2.9,0.5-5.9-0.8-7.6-3.2L1217.4,42.7z"/>
	<path class="st40" d="M1254.1,21.6c-1.5-2.1-6.2-4.9-7.8-2.4l-9,12.6l15.9-1.6c1.9-2.3,2.3-5.5,1-8.2L1254.1,21.6z"/>
	<path class="st39" d="M1078.7,47.9l69.4,117.7c2.8,5.2,9.3,7,14.5,4.2l2.2-1.3c5-3.1,6.6-9.6,3.6-14.6l-75-120.6l-3-14.5L1088-1.4
		c-0.7-3.6-3.2-10.7-8.2-14.2c-7.9-5.6-20.7-7-24.4-4.8l16,13.7l-0.8,12.5l-7.2,7.5l-9.5,3.9L1037.2,4
		c-3.6,11.1,11.6,30.1,11.6,30.1l0.4,0.4c4.2,0.3,24.3,4.6,29.1,12.9"/>
	<line class="st43" x1="1079" y1="48.4" x2="1078.4" y2="47.4"/>
	<line class="st43" x1="1063.5" y1="13.3" x2="1048.9" y2="34.1"/>
	<line class="st40" x1="1072.1" y1="19.3" x2="1082.1" y2="25.7"/>
	<line class="st40" x1="1070.3" y1="22.3" x2="1080.3" y2="28.7"/>
	<line class="st40" x1="1068.5" y1="25.3" x2="1078.5" y2="31.7"/>
	<line class="st43" x1="1093.3" y1="33.4" x2="1077.6" y2="46.2"/>
	<path class="st1" d="M2189,1186.1l9.8-5.7l2.7,4.7l-7.2,4.1l62.5,104.9c0,0,15.2,1.7,19.1,6.8c3.4,4.4,37.1,53.3,46.6,67.2
		c1.3,1.9,0.8,4.4-1,5.7c-0.1,0.1-0.2,0.1-0.3,0.2l-16.2,9.4l-1,0.6l-16.2,9.4c-2,1.1-4.4,0.5-5.6-1.5c-0.1-0.1-0.1-0.2-0.2-0.3
		c-7.2-15.2-32.8-68.8-34.9-74c-2.5-6,3.6-20,3.6-20l-59.6-106.6l-7.2,4.1l-2.7-4.7l9.8-5.7"/>
	<path class="st2" d="M2212.3,1436.8c-30.9,17-61.5,3.3-61.5,3.3l-46.2-80c2.7-21.4,15.3-40.3,34-50.9"/>
	<path class="st2" d="M2211.2,1437.4c30.2-18.3,33.6-51.6,33.6-51.6l-46.2-80c-19.9-8.4-42.5-6.9-61.1,4"/>
	<line class="st3" x1="2138.6" y1="1309.1" x2="2189.9" y2="1398"/>
	<path class="st2" d="M2032.3,1362.4l72.6,123.2c3,5.4,9.7,7.4,15.1,4.4l2.3-1.3c5.3-3.2,6.9-10.1,3.7-15.3l-78.5-126.1l-3.1-15.2
		l-2.4-21.3c-0.8-3.8-3.3-11.2-8.6-14.9c-8.2-5.8-21.7-7.3-25.6-5.1l16.8,14.4l-0.8,13.1l-7.5,7.8l-9.9,4.1l-17.5-13.8
		c-3.7,11.6,12.2,31.5,12.2,31.5l0.4,0.4c4.4,0.3,25.4,4.8,30.5,13.5"/>
	<polyline class="st17" points="-74.5,1312 -90.2,1284.9 -92.2,1281.3 	"/>
	<path class="st22" d="M-6.7,1370.7l-4.6-8l3.9-2.2l3.4,5.8l85.2-50.8c0,0,1.4-12.3,5.5-15.5c3.6-2.8,43.3-30.1,54.6-37.9
		c1.5-1,3.6-0.7,4.6,0.9c0,0.1,0.1,0.1,0.1,0.2l7.6,13.2l0.5,0.8l7.6,13.2c0.9,1.6,0.4,3.6-1.2,4.5c-0.1,0-0.2,0.1-0.2,0.1
		c-12.3,5.9-55.9,26.6-60.1,28.3c-4.9,2-16.2-3-16.2-3l-86.6,48.4l3.4,5.8l-3.9,2.2l-4.6-8"/>
	<path class="st25" d="M-81.5,1243l156.8-90.5c2.1-1.2,4.7-0.5,5.9,1.6l52,90c1.2,2.1,0.5,4.7-1.6,5.9l-156.8,90.5
		c-2.1,1.2-4.7,0.5-5.9-1.6l-52-90C-84.3,1246.8-83.6,1244.2-81.5,1243z"/>
	<line class="st25" x1="-75.3" y1="1262.4" x2="89" y2="1167.5"/>
	<ellipse transform="matrix(0.866 -0.5 0.5 0.866 -633.4382 132.0355)" class="st26" cx="-70.3" cy="1248" rx="0.9" ry="0.9"/>
	<ellipse transform="matrix(0.866 -0.5 0.5 0.866 -630.2302 135.243)" class="st26" cx="-62.7" cy="1243.6" rx="0.9" ry="0.9"/>
	<ellipse transform="matrix(0.866 -0.5 0.5 0.866 -627.1946 138.2789)" class="st26" cx="-55.6" cy="1239.5" rx="0.9" ry="0.9"/>
	<line class="st27" x1="-50.2" y1="1267.3" x2="10.7" y2="1232.1"/>
	<line class="st27" x1="-39.3" y1="1286" x2="21.6" y2="1250.9"/>
	<line class="st27" x1="-28.5" y1="1304.8" x2="32.4" y2="1269.6"/>
	<line class="st27" x1="20.9" y1="1226.3" x2="81.1" y2="1191.5"/>
	<line class="st27" x1="28.9" y1="1240.1" x2="89.1" y2="1205.3"/>
	<line class="st27" x1="36.8" y1="1253.9" x2="97" y2="1219.1"/>
	<line class="st25" x1="173.4" y1="1357.4" x2="151.3" y2="1319.2"/>
	<line class="st25" x1="181.1" y1="1353" x2="159" y2="1314.7"/>
	<path class="st1" d="M1010.5,1252.7l9.8-5.7l2.7,4.7l-7.2,4.1l62.5,104.9c0,0,15.2,1.7,19.1,6.8c3.4,4.4,37.1,53.3,46.6,67.2
		c1.3,1.9,0.8,4.4-1,5.7c-0.1,0.1-0.2,0.1-0.3,0.2l-16.2,9.4l-1,0.6l-16.2,9.4c-2,1.1-4.4,0.5-5.6-1.5c-0.1-0.1-0.1-0.2-0.2-0.3
		c-7.2-15.2-32.8-68.8-34.9-74c-2.5-6,3.6-20,3.6-20l-59.6-106.6l-7.2,4.1l-2.7-4.7l9.8-5.7"/>
	<path class="st2" d="M1109.2,1325.3l162.1-93.6c2.1-1.2,4.9-0.5,6.1,1.6l53.7,93.1c1.2,2.1,0.5,4.9-1.6,6.1l-162.1,93.6
		c-2.1,1.2-4.9,0.5-6.1-1.6l-53.7-93.1C1106.3,1329.3,1107,1326.5,1109.2,1325.3z"/>
	<line class="st2" x1="1115.6" y1="1345.4" x2="1285.5" y2="1247.3"/>
	<ellipse transform="matrix(0.866 -0.5 0.5 0.866 -508.6641 745.0755)" class="st4" cx="1136" cy="1321.7" rx="1" ry="1"/>
	<line class="st3" x1="1141.6" y1="1350.5" x2="1204.5" y2="1314.1"/>
	<line class="st3" x1="1215.1" y1="1308" x2="1277.3" y2="1272.1"/>
	<line class="st3" x1="1223.3" y1="1322.3" x2="1285.5" y2="1286.4"/>
	<line class="st3" x1="1231.5" y1="1336.6" x2="1293.8" y2="1300.6"/>
	<line class="st2" x1="1116.7" y1="1272.8" x2="1222.1" y2="1211.9"/>
	<line class="st2" x1="1123.4" y1="1295.2" x2="1100.6" y2="1255.7"/>
	<line class="st2" x1="1115.4" y1="1299.8" x2="1092.6" y2="1260.3"/>
	<line class="st2" x1="1107.4" y1="1304.5" x2="1084.6" y2="1264.9"/>
	<line class="st2" x1="1091.9" y1="1287.1" x2="1086.2" y2="1290.4"/>
	<line class="st2" x1="1238.1" y1="1229" x2="1215.3" y2="1189.4"/>
	<line class="st2" x1="1246.1" y1="1224.4" x2="1223.3" y2="1184.8"/>
	<line class="st2" x1="1254.1" y1="1219.8" x2="1231.3" y2="1180.2"/>
	<line class="st2" x1="1246.9" y1="1197.6" x2="1252.5" y2="1194.3"/>
	<ellipse transform="matrix(0.866 -0.5 0.5 0.866 -445.1435 731.7678)" class="st6" cx="1142.9" cy="1196.5" rx="37.2" ry="37.2"/>
	<ellipse transform="matrix(0.866 -0.5 0.5 0.866 -445.1435 731.7678)" class="st7" cx="1142.9" cy="1196.5" rx="27" ry="27"/>
	<polyline class="st8" points="1113.6,1246.1 1097.3,1218 1095.2,1214.3 	"/>
	<polyline class="st9" points="1084.9,1204.1 1091.9,1216.2 1095.2,1214.3 	"/>
	<polyline class="st10" points="1091.5,1200.3 1098.5,1212.3 1095.2,1214.3 1088.2,1202.2 	"/>
	<polyline class="st13" points="1198.6,1197.1 1182.9,1170 1180.9,1166.3 	"/>
	<ellipse transform="matrix(0.866 -0.5 0.5 0.866 -422.5326 744.2521)" class="st12" cx="1177.5" cy="1160.6" rx="4.7" ry="7"/>
	<ellipse transform="matrix(0.866 -0.5 0.5 0.866 183.8396 1169.7557)" class="st15" cx="2274.7" cy="241.8" rx="35.9" ry="35.9"/>
	<polyline class="st17" points="2246.3,289.7 2230.6,262.6 2228.5,259 	"/>
	<polyline class="st18" points="2218.6,249.2 2225.4,260.8 2228.5,259 	"/>
	<polyline class="st19" points="2225,245.5 2231.7,257.1 2228.5,259 2221.8,247.3 	"/>
	<line class="st28" x1="2177" y1="312" x2="2176.1" y2="312.5"/>
	<path class="st25" d="M2206,325.4l70.2,119.1c2.9,5.2,9.4,7.1,14.6,4.3l2.2-1.3c5.1-3.1,6.7-9.7,3.6-14.8l-75.9-122l-3-14.7
		l-2.3-20.6c-0.8-3.7-3.2-10.8-8.3-14.4c-8-5.6-20.9-7.1-24.7-4.9l16.2,13.9l-0.8,12.7l-7.3,7.5l-9.6,4l-17-13.4
		c-3.6,11.2,11.8,30.5,11.8,30.5l0.4,0.4c4.3,0.3,24.6,4.6,29.4,13.1"/>
	<line class="st28" x1="2206.3" y1="325.9" x2="2205.7" y2="324.9"/>
	<line class="st28" x1="2190.6" y1="290.3" x2="2175.9" y2="311.4"/>
	<line class="st27" x1="2199.3" y1="296.4" x2="2209.4" y2="302.9"/>
	<line class="st27" x1="2197.5" y1="299.4" x2="2207.6" y2="305.9"/>
	<line class="st27" x1="2195.7" y1="302.5" x2="2205.8" y2="308.9"/>
	<line class="st28" x1="2220.8" y1="310.7" x2="2205" y2="323.6"/>
	<ellipse transform="matrix(0.866 -0.5 0.5 0.866 -604.3203 480.3925)" class="st29" cx="594.3" cy="1367.9" rx="63.9" ry="63.9"/>
	<ellipse transform="matrix(0.866 -0.5 0.5 0.866 -604.3203 480.3925)" class="st30" cx="594.3" cy="1367.9" rx="46.5" ry="46.5"/>
	<polyline class="st44" points="690.1,1368.9 663.8,1323.3 660.3,1317.2 	"/>
	<ellipse transform="matrix(0.866 -0.5 0.5 0.866 -565.4217 501.8705)" class="st34" cx="653.8" cy="1306" rx="8" ry="12"/>
	<path class="st35" d="M447.8,1257.3l124-71.6c1.6-0.9,3.7-0.4,4.7,1.3l41.1,71.2c0.9,1.6,0.4,3.7-1.3,4.7l-124,71.6
		c-1.6,0.9-3.7,0.4-4.7-1.3l-41.1-71.2C445.6,1260.3,446.1,1258.2,447.8,1257.3z"/>
	<line class="st35" x1="452.7" y1="1272.6" x2="582.5" y2="1197.6"/>
	<ellipse transform="matrix(0.866 -0.5 0.5 0.866 -569.4779 397.2706)" class="st36" cx="456.6" cy="1261.3" rx="0.7" ry="0.7"/>
	<ellipse transform="matrix(0.866 -0.5 0.5 0.866 -566.9425 399.8058)" class="st36" cx="462.6" cy="1257.8" rx="0.7" ry="0.7"/>
	<ellipse transform="matrix(0.866 -0.5 0.5 0.866 -564.5423 402.2062)" class="st36" cx="468.3" cy="1254.6" rx="0.7" ry="0.7"/>
	<line class="st37" x1="472.5" y1="1276.5" x2="520.7" y2="1248.7"/>
	<line class="st37" x1="481.1" y1="1291.4" x2="529.2" y2="1263.6"/>
	<line class="st37" x1="489.6" y1="1306.2" x2="537.8" y2="1278.4"/>
	<line class="st37" x1="528.7" y1="1244.1" x2="576.3" y2="1216.6"/>
	<line class="st37" x1="535" y1="1255" x2="582.6" y2="1227.5"/>
	<line class="st37" x1="541.3" y1="1265.9" x2="588.9" y2="1238.4"/>
	<path class="st38" d="M276.5,1383.6l-4.3-7.5l3.6-2.1l3.2,5.5l80.2-47.8c0,0,1.3-11.6,5.2-14.6c3.4-2.6,40.8-28.4,51.4-35.6
		c1.4-1,3.4-0.6,4.3,0.8c0,0.1,0.1,0.1,0.1,0.2l7.1,12.4l0.4,0.8l7.1,12.4c0.9,1.5,0.4,3.4-1.1,4.3c-0.1,0-0.1,0.1-0.2,0.1
		c-11.6,5.5-52.6,25-56.6,26.7c-4.6,1.9-15.3-2.8-15.3-2.8l-81.5,45.5l3.2,5.5l-3.6,2.1l-4.3-7.5"/>
	<path class="st22" d="M-70.9,1088.8l-4.6-8l3.9-2.2l3.4,5.8l85.2-50.8c0,0,1.4-12.3,5.5-15.5c3.6-2.8,43.3-30.1,54.6-37.9
		c1.5-1,3.6-0.7,4.6,0.9c0,0.1,0.1,0.1,0.1,0.2l7.6,13.2l0.5,0.8l7.6,13.2c0.9,1.6,0.4,3.6-1.2,4.5c-0.1,0-0.2,0.1-0.2,0.1
		c-12.3,5.9-55.9,26.6-60.1,28.3c-4.9,2-16.2-3-16.2-3l-86.6,48.4l3.4,5.8l-3.9,2.2l-4.6-8"/>
	<path class="st23" d="M-95,1199.8c18.4-11.2,20.5-31.5,20.5-31.5l-28.2-48.9c-12.1-5.1-26-4.2-37.3,2.4"/>
	<path class="st25" d="M-145.6,961l156.8-90.5c2.1-1.2,4.7-0.5,5.9,1.6l52,90c1.2,2.1,0.5,4.7-1.6,5.9l-156.8,90.5
		c-2.1,1.2-4.7,0.5-5.9-1.6l-52-90C-148.4,964.9-147.7,962.2-145.6,961z"/>
	<line class="st25" x1="-139.4" y1="980.4" x2="24.9" y2="885.6"/>
	<line class="st27" x1="-114.3" y1="985.4" x2="-53.4" y2="950.2"/>
	<line class="st27" x1="-103.5" y1="1004.1" x2="-42.6" y2="969"/>
	<line class="st27" x1="-92.6" y1="1022.9" x2="-31.8" y2="987.7"/>
	<line class="st27" x1="-43.2" y1="944.3" x2="17" y2="909.6"/>
	<line class="st27" x1="-35.3" y1="958.1" x2="24.9" y2="923.4"/>
	<line class="st27" x1="-27.3" y1="971.9" x2="32.9" y2="937.2"/>
	<line class="st25" x1="-16" y1="1122.3" x2="86" y2="1063.4"/>
	<line class="st25" x1="-9.4" y1="1144" x2="-31.5" y2="1105.7"/>
	<line class="st25" x1="-17.1" y1="1148.5" x2="-39.2" y2="1110.2"/>
	<line class="st25" x1="-24.9" y1="1152.9" x2="-47" y2="1114.7"/>
	<line class="st25" x1="-40" y1="1136.1" x2="-45.4" y2="1139.3"/>
	<line class="st25" x1="101.5" y1="1080" x2="79.4" y2="1041.7"/>
	<line class="st25" x1="109.3" y1="1075.5" x2="87.2" y2="1037.2"/>
	<line class="st25" x1="117" y1="1071" x2="94.9" y2="1032.8"/>
	<line class="st25" x1="110" y1="1049.6" x2="115.4" y2="1046.4"/>
</g>
<g id="AB_1">
	<g id="Reactor">
		<path class="st45" d="M22.4,831.6C-28.1,859.3-78,837-78,837l-75.4-130.7c0,0,3.5-53.2,55.5-83.2"/>
		<path class="st45" d="M20.5,832.6c49.3-29.8,54.9-84.2,54.9-84.2L0,617.7c0,0-47.8-23.6-99.8,6.5"/>
		<line class="st46" x1="-98" y1="623.1" x2="-14.2" y2="768.3"/>
		<path class="st46" d="M-45.3,785.6c-1.8-3.9-1.9-13.3,3.1-13.6l26.3-2.6l-16,22.2c-4.1,0.8-10.5-1.1-13-5.5L-45.3,785.6z"/>
		<path class="st46" d="M17.3,749.4c-2.5-3.5-10.6-8.3-13.3-4.2l-15.4,21.5l27.2-2.7c2.8-3.1,4.3-9.6,1.8-14L17.3,749.4z"/>
		<path class="st45" d="M611.6,1109.9c-50.5,27.8-100.4,5.4-100.4,5.4l-75.4-130.7c0,0,3.5-53.2,55.5-83.2"/>
		<path class="st45" d="M609.8,1110.9c49.3-29.8,54.9-84.2,54.9-84.2L589.3,896c0,0-47.8-23.6-99.8,6.5"/>
		<line class="st46" x1="491.3" y1="901.4" x2="575.1" y2="1046.6"/>
		<path class="st46" d="M544,1063.9c-1.8-3.9-1.9-13.3,3.1-13.6l26.3-2.6l-16,22.2c-4.1,0.8-10.5-1.1-13-5.5L544,1063.9z"/>
		<path class="st46" d="M606.6,1027.7c-2.5-3.5-10.6-8.3-13.3-4.2l-15.4,21.5l27.2-2.7c2.8-3.1,4.3-9.6,1.8-14L606.6,1027.7z"/>
		<path class="st45" d="M2167.7,535.1c-50.5,27.8-100.4,5.4-100.4,5.4l-75.4-130.7c0,0,3.5-53.2,55.5-83.2"/>
		<path class="st45" d="M2165.9,536.1c49.3-29.8,54.9-84.2,54.9-84.2l-75.4-130.7c0,0-47.8-23.6-99.8,6.5"/>
		<line class="st46" x1="2047.4" y1="326.7" x2="2131.2" y2="471.8"/>
		<path class="st46" d="M2100,489.1c-1.8-3.9-1.9-13.3,3.1-13.6l26.3-2.6l-16,22.2c-4.1,0.8-10.5-1.1-13-5.5L2100,489.1z"/>
		<path class="st46" d="M2162.6,453c-2.5-3.5-10.6-8.3-13.3-4.2l-15.4,21.5l27.2-2.7c2.8-3.1,4.3-9.6,1.8-14L2162.6,453z"/>
		<path class="st45" d="M240.2,101.9c-50.5,27.8-100.4,5.4-100.4,5.4L64.3-23.3c0,0,3.5-53.2,55.5-83.2"/>
		<path class="st45" d="M238.3,103c49.3-29.8,54.9-84.2,54.9-84.2l-75.4-130.7c0,0-47.8-23.6-99.8,6.5"/>
		<line class="st46" x1="119.8" y1="-106.5" x2="203.6" y2="38.7"/>
		<path class="st46" d="M172.5,55.9c-1.8-3.9-1.9-13.3,3.1-13.6l26.3-2.6l-16,22.2c-4.1,0.8-10.5-1.1-13-5.5L172.5,55.9z"/>
		<path class="st46" d="M235.1,19.8c-2.5-3.5-10.6-8.3-13.3-4.2l-15.4,21.5l27.2-2.7c2.8-3.1,4.3-9.6,1.8-14L235.1,19.8z"/>
		<path class="st45" d="M2282.6,1095.3c-50.5,27.8-100.4,5.4-100.4,5.4l-75.4-130.7c0,0,3.5-53.2,55.5-83.2"/>
		<path class="st45" d="M2280.8,1096.4c49.3-29.8,54.9-84.2,54.9-84.2l-75.4-130.7c0,0-47.8-23.6-99.8,6.5"/>
		<line class="st46" x1="2162.3" y1="886.9" x2="2246.1" y2="1032.1"/>
		<path class="st46" d="M2215,1049.3c-1.8-3.9-1.9-13.3,3.1-13.6l26.3-2.6l-16,22.2c-4.1,0.8-10.5-1.1-13-5.5L2215,1049.3z"/>
	</g>
	<g id="Webpage">
		<path class="st47" d="M1319.5,437l324.3-187.2c4.3-2.5,9.7-1,12.2,3.3l107.5,186.2c2.5,4.3,1,9.7-3.3,12.2l-324.3,187.2
			c-4.3,2.5-9.7,1-12.2-3.3l-107.5-186.2C1313.7,444.9,1315.2,439.4,1319.5,437z"/>
		<line class="st47" x1="1332.3" y1="477.1" x2="1672.1" y2="280.9"/>
		<ellipse transform="matrix(0.866 -0.5 0.5 0.866 -43.8529 731.2222)" class="st48" cx="1342.6" cy="447.4" rx="1.9" ry="1.9"/>
		<ellipse transform="matrix(0.866 -0.5 0.5 0.866 -37.2206 737.8549)" class="st48" cx="1358.2" cy="438.4" rx="1.9" ry="1.9"/>
		<ellipse transform="matrix(0.866 -0.5 0.5 0.866 -30.9427 744.1329)" class="st48" cx="1373.1" cy="429.8" rx="1.9" ry="1.9"/>
		<line class="st49" x1="1384.3" y1="487.3" x2="1510.2" y2="414.6"/>
		<line class="st49" x1="1395.5" y1="506.7" x2="1521.4" y2="434"/>
		<line class="st49" x1="1406.7" y1="526.1" x2="1532.6" y2="453.4"/>
		<line class="st49" x1="1417.9" y1="545.4" x2="1543.8" y2="472.8"/>
		<line class="st49" x1="1429" y1="564.8" x2="1555" y2="492.1"/>
		<line class="st49" x1="1531.2" y1="402.4" x2="1655.7" y2="330.6"/>
		<line class="st49" x1="1542.2" y1="421.5" x2="1666.7" y2="349.6"/>
		<line class="st49" x1="1553.2" y1="440.5" x2="1677.7" y2="368.6"/>
		<line class="st49" x1="1564.2" y1="459.5" x2="1688.7" y2="387.6"/>
		<path class="st2" d="M2027.4,769.7l162.1-93.6c2.1-1.2,4.9-0.5,6.1,1.6l53.7,93.1c1.2,2.1,0.5,4.9-1.6,6.1l-162.1,93.6
			c-2.1,1.2-4.9,0.5-6.1-1.6l-53.7-93.1C2024.5,773.7,2025.3,770.9,2027.4,769.7z"/>
		<line class="st2" x1="2033.8" y1="789.8" x2="2203.7" y2="691.7"/>
		<ellipse transform="matrix(0.866 -0.5 0.5 0.866 -114.3074 1123.286)" class="st4" cx="2038.9" cy="774.9" rx="1" ry="1"/>
		<ellipse transform="matrix(0.866 -0.5 0.5 0.866 -110.9905 1126.6025)" class="st4" cx="2046.8" cy="770.4" rx="1" ry="1"/>
		<ellipse transform="matrix(0.866 -0.5 0.5 0.866 -107.8519 1129.7413)" class="st4" cx="2054.2" cy="766.1" rx="1" ry="1"/>
		<line class="st3" x1="2059.8" y1="794.9" x2="2122.7" y2="758.5"/>
		<line class="st3" x1="2071" y1="814.3" x2="2133.9" y2="777.9"/>
		<line class="st3" x1="2082.2" y1="833.6" x2="2145.1" y2="797.3"/>
		<line class="st3" x1="2133.3" y1="752.4" x2="2195.5" y2="716.5"/>
		<line class="st3" x1="2141.5" y1="766.7" x2="2203.8" y2="730.8"/>
		<line class="st3" x1="2149.7" y1="781" x2="2212" y2="745"/>
		<path class="st47" d="M-329.8,456.3L-5.5,269.1c4.3-2.5,9.7-1,12.2,3.3l107.5,186.2c2.5,4.3,1,9.7-3.3,12.2L-213.3,658
			c-4.3,2.5-9.7,1-12.2-3.3L-333,468.5C-335.5,464.3-334,458.8-329.8,456.3z"/>
		<line class="st47" x1="-316.9" y1="496.5" x2="22.8" y2="300.3"/>
		<line class="st49" x1="-118" y1="421.8" x2="6.5" y2="349.9"/>
		<line class="st49" x1="-107" y1="440.8" x2="17.5" y2="368.9"/>
		<line class="st49" x1="-96" y1="459.8" x2="28.5" y2="388"/>
		<line class="st49" x1="-85.1" y1="478.8" x2="39.4" y2="407"/>
	</g>
	<g id="Barbell">
		<line class="st50" x1="676.9" y1="629" x2="1145.3" y2="358.6"/>
		<line class="st50" x1="706.9" y1="728.9" x2="605.4" y2="553"/>
		<line class="st50" x1="671.4" y1="749.4" x2="569.9" y2="573.5"/>
		<line class="st50" x1="635.9" y1="769.9" x2="534.3" y2="594"/>
		<line class="st50" x1="566.6" y1="692.7" x2="541.4" y2="707.2"/>
		<line class="st50" x1="1216.8" y1="434.5" x2="1115.2" y2="258.7"/>
		<line class="st50" x1="1252.3" y1="414" x2="1150.8" y2="238.1"/>
		<line class="st50" x1="1287.8" y1="393.5" x2="1186.3" y2="217.6"/>
		<line class="st50" x1="1255.6" y1="294.9" x2="1280.7" y2="280.4"/>
		<line class="st51" x1="1972.5" y1="757.4" x2="2206.7" y2="622.2"/>
		<line class="st51" x1="1987.6" y1="807.4" x2="1936.8" y2="719.4"/>
		<line class="st51" x1="1969.8" y1="817.6" x2="1919" y2="729.7"/>
		<line class="st51" x1="1952" y1="827.9" x2="1901.2" y2="739.9"/>
		<line class="st51" x1="1917.4" y1="789.2" x2="1904.8" y2="796.5"/>
		<line class="st51" x1="2242.5" y1="660.2" x2="2191.7" y2="572.2"/>
		<line class="st51" x1="2260.2" y1="649.9" x2="2209.5" y2="562"/>
		<line class="st51" x1="2278" y1="639.7" x2="2227.2" y2="551.7"/>
		<line class="st50" x1="638.2" y1="50.6" x2="1106.6" y2="-219.8"/>
		<line class="st50" x1="668.2" y1="150.5" x2="566.7" y2="-25.4"/>
		<line class="st50" x1="632.7" y1="171" x2="531.1" y2="-4.9"/>
		<line class="st50" x1="597.2" y1="191.5" x2="495.6" y2="15.7"/>
		<line class="st50" x1="527.9" y1="114.3" x2="502.7" y2="128.8"/>
		<line class="st50" x1="2229.3" y1="43.3" x2="2697.7" y2="-227.1"/>
		<line class="st50" x1="2259.4" y1="143.3" x2="2157.8" y2="-32.6"/>
		<line class="st50" x1="2223.8" y1="163.8" x2="2122.3" y2="-12.1"/>
		<line class="st50" x1="2188.3" y1="184.3" x2="2086.8" y2="8.4"/>
		<line class="st50" x1="2119" y1="107" x2="2093.9" y2="121.6"/>
	</g>
	<g id="Plate">
		
			<ellipse transform="matrix(0.866 -0.5 0.5 0.866 -153.7339 695.6774)" class="st52" cx="1221.3" cy="634.7" rx="105.7" ry="105.7"/>
		<ellipse transform="matrix(0.866 -0.5 0.5 0.866 -153.7339 695.6775)" class="st53" cx="1221.3" cy="634.7" rx="76.8" ry="76.8"/>
		<polyline class="st54" points="1137.8,775.7 1091.6,695.8 1085.5,685.1 		"/>
		<polyline class="st55" points="1056.4,656.3 1076.1,690.5 1085.5,685.1 		"/>
		<polyline class="st56" points="1075.1,645.5 1094.9,679.7 1085.5,685.1 1065.7,650.9 		"/>
		<polyline class="st54" points="1379.7,636.4 1333.6,556.5 1329.1,549.6 		"/>
		<ellipse transform="matrix(0.866 -0.5 0.5 0.866 -89.4183 731.1897)" class="st57" cx="1319.7" cy="532.5" rx="13.2" ry="19.9"/>
		<ellipse transform="matrix(0.866 -0.5 0.5 0.866 -273.377 176.5639)" class="st52" cx="192.8" cy="598.4" rx="105.7" ry="105.7"/>
		<ellipse transform="matrix(0.866 -0.5 0.5 0.866 -273.377 176.5639)" class="st53" cx="192.8" cy="598.4" rx="76.8" ry="76.8"/>
		<polyline class="st54" points="109.3,739.4 63.1,659.5 57,648.8 		"/>
		<polyline class="st55" points="27.9,620 47.6,654.2 57,648.8 		"/>
		<polyline class="st56" points="46.6,609.2 66.4,643.4 57,648.8 37.2,614.6 		"/>
		<polyline class="st58" points="351.2,600.1 306.4,522.5 300.5,512.2 		"/>
		<ellipse transform="matrix(0.866 -0.5 0.5 0.866 -209.0612 212.0767)" class="st57" cx="291.2" cy="496.2" rx="13.2" ry="19.9"/>
		
			<ellipse transform="matrix(0.866 -0.5 0.5 0.866 -294.4042 1148.3691)" class="st52" cx="1995.7" cy="1123.6" rx="105.7" ry="105.7"/>
		
			<ellipse transform="matrix(0.866 -0.5 0.5 0.866 -294.4042 1148.3691)" class="st53" cx="1995.7" cy="1123.6" rx="76.8" ry="76.8"/>
		<polyline class="st54" points="1912.2,1264.5 1866,1184.6 1859.9,1174 		"/>
		<polyline class="st55" points="1830.8,1145.2 1850.5,1179.4 1859.9,1174 		"/>
		<polyline class="st56" points="1849.5,1134.3 1869.3,1168.5 1859.9,1174 1840.1,1139.8 		"/>
		<polyline class="st58" points="2154.1,1125.2 2109.3,1047.6 2103.4,1037.3 		"/>
		
			<ellipse transform="matrix(0.866 -0.5 0.5 0.866 -230.0884 1183.882)" class="st57" cx="2094.1" cy="1021.3" rx="13.2" ry="19.9"/>
		
			<ellipse transform="matrix(0.866 -0.5 0.5 0.866 -485.1106 550.3837)" class="st52" cx="784.5" cy="1180.4" rx="105.7" ry="105.7"/>
		<ellipse transform="matrix(0.866 -0.5 0.5 0.866 -485.1107 550.3837)" class="st53" cx="784.5" cy="1180.4" rx="76.8" ry="76.8"/>
		<polyline class="st54" points="701,1321.4 654.8,1241.5 648.7,1230.8 		"/>
		<polyline class="st55" points="619.5,1202 639.3,1236.2 648.7,1230.8 		"/>
		<polyline class="st56" points="638.3,1191.2 658.1,1225.4 648.7,1230.8 628.9,1196.6 		"/>
		<polyline class="st54" points="942.9,1182.1 896.8,1102.2 892.3,1095.3 		"/>
		<ellipse transform="matrix(0.866 -0.5 0.5 0.866 -420.795 585.8959)" class="st57" cx="882.9" cy="1078.2" rx="13.2" ry="19.9"/>
		
			<ellipse transform="matrix(0.866 -0.5 0.5 0.866 273.6843 923.5255)" class="st52" cx="1860.2" cy="-48.9" rx="105.7" ry="105.7"/>
		<ellipse transform="matrix(0.866 -0.5 0.5 0.866 273.6843 923.5255)" class="st53" cx="1860.2" cy="-48.9" rx="76.8" ry="76.8"/>
		<polyline class="st54" points="1776.6,92 1730.5,12.1 1724.4,1.5 		"/>
	</g>
	<g id="HTML">
		<path class="st59" d="M277.6,1247.3l-115.2-12.8c-6.7-0.8-11.8-9.5-9.1-15.7l46.5-106.2c2-4.5,7.2-5.5,11.6-2.3l0,0
			c4.5,3.2,6.5,9.4,4.5,13.9l-40.4,92.2l100.1,11.1c4.8,0.5,9.2,5.4,9.7,10.9l0,0C285.9,1243.9,282.4,1247.8,277.6,1247.3z"/>
		<line class="st60" x1="295.5" y1="1061.5" x2="302" y2="1229.1"/>
		<path class="st59" d="M304.9,1251.6L304.9,1251.6c-6.2,0.1-11.3-4.7-11.6-10.8l-9.6-201.4c-0.3-6,4.2-11.1,10.2-11.5
			c0.1,0,0.2,0,0.3,0l0,0c6.2-0.1,11.3,4.7,11.6,10.8l9.6,201.4c0.3,6-4.2,11.1-10.2,11.5C305.1,1251.6,305,1251.6,304.9,1251.6z"/>
		<path class="st59" d="M400.8,1176.2l46.5-106.2c2.7-6.2-2.3-14.9-9.1-15.7l-115.2-12.8c-4.8-0.5-8.3,3.5-7.8,8.9l0,0
			c0.5,5.5,4.9,10.3,9.7,10.9l100.1,11.1l-40.4,92.2c-2,4.5,0.1,10.7,4.5,13.9l0,0C393.7,1181.6,398.9,1180.6,400.8,1176.2z"/>
		<path class="st59" d="M1839.7,677.4l-115.2-12.8c-6.7-0.8-11.8-9.5-9.1-15.7l46.5-106.2c2-4.5,7.2-5.5,11.6-2.3l0,0
			c4.5,3.2,6.5,9.4,4.5,13.9l-40.4,92.2l100.1,11.1c4.8,0.5,9.2,5.4,9.7,10.9l0,0C1848,673.9,1844.5,677.9,1839.7,677.4z"/>
		<line class="st60" x1="1857.6" y1="491.6" x2="1864.2" y2="659.2"/>
		<path class="st59" d="M1867.1,681.7L1867.1,681.7c-6.2,0.1-11.3-4.7-11.6-10.8l-9.6-201.4c-0.3-6,4.2-11.1,10.2-11.5
			c0.1,0,0.2,0,0.3,0l0,0c6.2-0.1,11.3,4.7,11.6,10.8l9.6,201.4c0.3,6-4.2,11.1-10.2,11.5C1867.2,681.7,1867.1,681.7,1867.1,681.7z"
			/>
		<path class="st59" d="M1962.9,606.2l46.5-106.2c2.7-6.2-2.3-14.9-9.1-15.7l-115.2-12.8c-4.8-0.5-8.3,3.5-7.8,8.9l0,0
			c0.5,5.5,4.9,10.3,9.7,10.9l100.1,11.1l-40.4,92.2c-2,4.5,0.1,10.7,4.5,13.9l0,0C1955.8,611.7,1961,610.7,1962.9,606.2z"/>
		<path class="st59" d="M901.9,281.7l-115.2-12.8c-6.7-0.8-11.8-9.5-9.1-15.7L824.2,147c2-4.5,7.2-5.5,11.6-2.3l0,0
			c4.5,3.2,6.5,9.4,4.5,13.9l-40.4,92.2L900,261.9c4.8,0.5,9.2,5.4,9.7,10.9l0,0C910.3,278.3,906.8,282.3,901.9,281.7z"/>
		<line class="st60" x1="919.8" y1="95.9" x2="926.4" y2="263.5"/>
		<path class="st59" d="M929.3,286L929.3,286c-6.2,0.1-11.3-4.7-11.6-10.8l-9.6-201.4c-0.3-6,4.2-11.1,10.2-11.5c0.1,0,0.2,0,0.3,0
			l0,0c6.2-0.1,11.3,4.7,11.6,10.8l9.6,201.4c0.3,6-4.2,11.1-10.2,11.5C929.5,286,929.4,286,929.3,286z"/>
		<path class="st59" d="M1025.2,210.6l46.5-106.2c2.7-6.2-2.3-14.9-9.1-15.7L947.4,75.9c-4.8-0.5-8.3,3.5-7.8,8.9l0,0
			c0.5,5.5,4.9,10.3,9.7,10.9l100.1,11.1L1009,199c-2,4.5,0.1,10.7,4.5,13.9l0,0C1018,216.1,1023.2,215,1025.2,210.6z"/>
		<path class="st59" d="M1415,1232.8l-115.2-12.8c-6.7-0.8-11.8-9.5-9.1-15.7l46.5-106.2c2-4.5,7.2-5.5,11.6-2.3l0,0
			c4.5,3.2,6.5,9.4,4.5,13.9l-40.4,92.2L1413,1213c4.8,0.5,9.2,5.4,9.7,10.9l0,0C1423.3,1229.3,1419.8,1233.3,1415,1232.8z"/>
		<line class="st60" x1="1432.9" y1="1047" x2="1439.4" y2="1214.6"/>
		<path class="st59" d="M1442.3,1237.1L1442.3,1237.1c-6.2,0.1-11.3-4.7-11.6-10.8l-9.6-201.4c-0.3-6,4.2-11.1,10.2-11.5
			c0.1,0,0.2,0,0.3,0l0,0c6.2-0.1,11.3,4.7,11.6,10.8l9.6,201.4c0.3,6-4.2,11.1-10.2,11.5C1442.5,1237,1442.4,1237.1,1442.3,1237.1z
			"/>
		<path class="st59" d="M1538.2,1161.6l46.5-106.2c2.7-6.2-2.3-14.9-9.1-15.7l-115.2-12.8c-4.8-0.5-8.3,3.5-7.8,8.9l0,0
			c0.5,5.5,4.9,10.3,9.7,10.9l100.1,11.1l-40.4,92.2c-2,4.5,0.1,10.7,4.5,13.9l0,0C1531.1,1167.1,1536.3,1166.1,1538.2,1161.6z"/>
		<path class="st61" d="M412.1,412.7l-32.4-3.6c-1.8-0.4-3-2.2-2.7-4c0-0.1,0.1-0.3,0.1-0.4l13.1-29.9c0.5-1,1.7-1.5,2.7-1
			c0.2,0.1,0.4,0.2,0.5,0.4l0,0c1.2,0.9,1.8,2.5,1.3,3.9L383.4,404l28.1,3.1c1.5,0.3,2.6,1.5,2.7,3.1l0,0c0.3,1.1-0.4,2.2-1.5,2.5
			C412.5,412.7,412.3,412.7,412.1,412.7z"/>
		<line class="st62" x1="417.1" y1="360.5" x2="419" y2="407.6"/>
		<path class="st61" d="M419.8,413.9L419.8,413.9c-1.7,0-3.2-1.3-3.3-3l-2.7-56.6c-0.1-1.7,1.2-3.1,2.9-3.2c0,0,0,0,0.1,0l0,0
			c1.7,0,3.2,1.3,3.3,3l2.7,56.6C422.9,412.4,421.6,413.8,419.8,413.9C419.9,413.9,419.8,413.9,419.8,413.9z"/>
		<path class="st61" d="M446.8,392.7l13.1-29.9c0.6-1.8-0.3-3.7-2.1-4.3c-0.1,0-0.3-0.1-0.4-0.1l-32.4-3.6c-1.1-0.1-2.1,0.7-2.2,1.9
			c0,0.2,0,0.4,0,0.6l0,0c0.1,1.5,1.2,2.8,2.7,3.1l28.1,3.1l-11.4,25.9c-0.5,1.4,0,3,1.3,3.9l0,0c0.8,0.8,2.1,0.7,2.9-0.1
			C446.6,393.1,446.7,392.9,446.8,392.7z"/>
		<path class="st61" d="M172.5,852l-32.4-3.6c-1.8-0.4-3-2.2-2.7-4c0-0.1,0.1-0.3,0.1-0.4l13.1-29.9c0.5-1,1.7-1.5,2.7-1
			c0.2,0.1,0.4,0.2,0.5,0.4l0,0c1.2,0.9,1.8,2.5,1.3,3.9l-11.4,25.9l28.1,3.1c1.5,0.3,2.6,1.5,2.7,3.1l0,0c0.3,1.1-0.4,2.2-1.5,2.5
			C173,852,172.7,852,172.5,852z"/>
		<line class="st62" x1="177.6" y1="799.7" x2="179.4" y2="846.8"/>
		<path class="st61" d="M180.2,853.2L180.2,853.2c-1.7,0-3.2-1.3-3.3-3l-2.7-56.6c-0.1-1.7,1.2-3.1,2.9-3.2c0,0,0,0,0.1,0l0,0
			c1.7,0,3.2,1.3,3.3,3l2.7,56.6C183.3,851.6,182,853.1,180.2,853.2C180.3,853.1,180.3,853.2,180.2,853.2z"/>
		<path class="st61" d="M207.2,831.9l13.1-29.9c0.6-1.8-0.3-3.7-2.1-4.3c-0.1,0-0.3-0.1-0.4-0.1l-32.4-3.6c-1.1-0.1-2.1,0.7-2.2,1.9
			c0,0.2,0,0.4,0,0.6l0,0c0.1,1.5,1.2,2.8,2.7,3.1l28.1,3.1l-11.4,25.9c-0.5,1.4,0,3,1.3,3.9l0,0c0.8,0.8,2.1,0.7,2.9-0.1
			C207,832.3,207.1,832.1,207.2,831.9z"/>
		<path class="st61" d="M725.5,852l-32.4-3.6c-1.8-0.4-3-2.2-2.7-4c0-0.1,0.1-0.3,0.1-0.4l13.1-29.9c0.5-1,1.7-1.5,2.7-1
			c0.2,0.1,0.4,0.2,0.5,0.4l0,0c1.2,0.9,1.8,2.5,1.3,3.9l-11.4,25.9l28.1,3.1c1.5,0.3,2.6,1.5,2.7,3.1l0,0c0.3,1.1-0.4,2.2-1.5,2.5
			C725.9,852,725.7,852,725.5,852z"/>
		<line class="st62" x1="730.5" y1="799.7" x2="732.4" y2="846.8"/>
		<path class="st61" d="M733.2,853.2L733.2,853.2c-1.7,0-3.2-1.3-3.3-3l-2.7-56.6c-0.1-1.7,1.2-3.1,2.9-3.2c0,0,0,0,0.1,0l0,0
			c1.7,0,3.2,1.3,3.3,3l2.7,56.6C736.2,851.6,735,853.1,733.2,853.2C733.2,853.1,733.2,853.2,733.2,853.2z"/>
		<path class="st61" d="M760.2,831.9l13.1-29.9c0.6-1.8-0.3-3.7-2.1-4.3c-0.1,0-0.3-0.1-0.4-0.1l-32.4-3.6c-1.1-0.1-2.1,0.7-2.2,1.9
			c0,0.2,0,0.4,0,0.6l0,0c0.1,1.5,1.2,2.8,2.7,3.1l28.1,3.1l-11.4,25.9c-0.5,1.4,0,3,1.3,3.9l0,0c0.8,0.8,2.1,0.7,2.9-0.1
			C760,832.3,760.1,832.1,760.2,831.9z"/>
		<line class="st62" x1="935" y1="1313.9" x2="936.9" y2="1361.1"/>
		<path class="st61" d="M937.7,1367.4L937.7,1367.4c-1.7,0-3.2-1.3-3.3-3l-2.7-56.6c-0.1-1.7,1.2-3.1,2.9-3.2c0,0,0,0,0.1,0l0,0
			c1.7,0,3.2,1.3,3.3,3l2.7,56.6C940.7,1365.9,939.4,1367.3,937.7,1367.4C937.7,1367.4,937.7,1367.4,937.7,1367.4z"/>
		<path class="st61" d="M964.7,1346.2l13.1-29.9c0.6-1.8-0.3-3.7-2.1-4.3c-0.1,0-0.3-0.1-0.4-0.1l-32.4-3.6
			c-1.1-0.1-2.1,0.7-2.2,1.9c0,0.2,0,0.4,0,0.6l0,0c0.1,1.5,1.2,2.8,2.7,3.1l28.1,3.1l-11.4,25.9c-0.5,1.4,0,3,1.3,3.9l0,0
			c0.8,0.8,2.1,0.7,2.9-0.1C964.4,1346.6,964.6,1346.4,964.7,1346.2z"/>
		<path class="st63" d="M1031.6,1072.3l-31.3-3.5c-1.8-0.4-2.9-2.1-2.6-3.9c0-0.1,0.1-0.3,0.1-0.4l12.7-28.9c0.5-1,1.7-1.4,2.6-1
			c0.2,0.1,0.4,0.2,0.5,0.3l0,0c1.2,0.8,1.7,2.4,1.2,3.8l-11,25.1l27.2,3c1.4,0.3,2.5,1.5,2.6,3l0,0c0.2,1.1-0.4,2.1-1.5,2.4
			C1032,1072.3,1031.8,1072.3,1031.6,1072.3z"/>
		<line class="st64" x1="1036.4" y1="1021.7" x2="1038.2" y2="1067.3"/>
		<path class="st63" d="M1039,1073.5L1039,1073.5c-1.7,0-3.1-1.3-3.1-2.9l-2.6-54.8c-0.1-1.6,1.2-3,2.8-3.1c0,0,0,0,0.1,0l0,0
			c1.7,0,3.1,1.3,3.1,2.9l2.6,54.8C1041.9,1072,1040.7,1073.4,1039,1073.5C1039,1073.5,1039,1073.5,1039,1073.5z"/>
		<path class="st63" d="M1065.1,1052.9l12.7-28.9c0.6-1.7-0.3-3.6-2-4.2c-0.1,0-0.3-0.1-0.4-0.1l-31.3-3.5c-1.1-0.1-2.1,0.7-2.2,1.8
			c0,0.2,0,0.4,0,0.6l0,0c0.1,1.5,1.2,2.7,2.6,3l27.2,3l-11,25.1c-0.5,1.4,0,2.9,1.2,3.8l0,0c0.8,0.7,2.1,0.7,2.8-0.1
			C1064.9,1053.3,1065,1053.1,1065.1,1052.9z"/>
		<path class="st61" d="M1360.8,803.6l-32.4-3.6c-1.8-0.4-3-2.2-2.7-4c0-0.1,0.1-0.3,0.1-0.4l13.1-29.9c0.5-1,1.7-1.5,2.7-1
			c0.2,0.1,0.4,0.2,0.5,0.4l0,0c1.2,0.9,1.8,2.5,1.3,3.9l-11.4,25.9l28.1,3.1c1.5,0.3,2.6,1.5,2.7,3.1l0,0c0.3,1.1-0.4,2.2-1.5,2.5
			C1361.2,803.6,1361,803.6,1360.8,803.6z"/>
		<line class="st62" x1="1365.8" y1="751.3" x2="1367.6" y2="798.4"/>
		<path class="st61" d="M1368.4,804.8L1368.4,804.8c-1.7,0-3.2-1.3-3.3-3l-2.7-56.6c-0.1-1.7,1.2-3.1,2.9-3.2c0,0,0,0,0.1,0l0,0
			c1.7,0,3.2,1.3,3.3,3l2.7,56.6C1371.5,803.2,1370.2,804.7,1368.4,804.8C1368.5,804.7,1368.5,804.8,1368.4,804.8z"/>
		<path class="st61" d="M1395.4,783.5l13.1-29.9c0.6-1.8-0.3-3.7-2.1-4.3c-0.1,0-0.3-0.1-0.4-0.1l-32.4-3.6
			c-1.1-0.1-2.1,0.7-2.2,1.9c0,0.2,0,0.4,0,0.6l0,0c0.1,1.5,1.2,2.8,2.7,3.1l28.1,3.1l-11.4,25.9c-0.5,1.4,0,3,1.3,3.9l0,0
			c0.8,0.8,2.1,0.7,2.9-0.1C1395.2,783.9,1395.3,783.7,1395.4,783.5z"/>
		<path class="st63" d="M1687.4,1015.4l-31.3-3.5c-1.8-0.4-2.9-2.1-2.6-3.9c0-0.1,0.1-0.3,0.1-0.4l12.7-28.9c0.5-1,1.7-1.4,2.6-1
			c0.2,0.1,0.4,0.2,0.5,0.3l0,0c1.2,0.8,1.7,2.4,1.2,3.8l-11,25.1l27.2,3c1.4,0.3,2.5,1.5,2.6,3l0,0c0.2,1.1-0.4,2.1-1.5,2.4
			C1687.8,1015.4,1687.6,1015.4,1687.4,1015.4z"/>
		<line class="st64" x1="1692.2" y1="964.9" x2="1694" y2="1010.5"/>
		<path class="st63" d="M1694.8,1016.6L1694.8,1016.6c-1.7,0-3.1-1.3-3.1-2.9l-2.6-54.8c-0.1-1.6,1.2-3,2.8-3.1c0,0,0,0,0.1,0l0,0
			c1.7,0,3.1,1.3,3.1,2.9l2.6,54.8C1697.8,1015.1,1696.5,1016.5,1694.8,1016.6C1694.9,1016.6,1694.8,1016.6,1694.8,1016.6z"/>
		<path class="st63" d="M1720.9,996.1l12.7-28.9c0.6-1.7-0.3-3.6-2-4.2c-0.1,0-0.3-0.1-0.4-0.1l-31.3-3.5c-1.1-0.1-2.1,0.7-2.2,1.8
			c0,0.2,0,0.4,0,0.6l0,0c0.1,1.5,1.2,2.7,2.6,3l27.2,3l-11,25.1c-0.5,1.4,0,2.9,1.2,3.8l0,0c0.8,0.7,2.1,0.7,2.8-0.1
			C1720.7,996.4,1720.8,996.3,1720.9,996.1z"/>
		<path class="st61" d="M1360.8,176.8l-32.4-3.6c-1.8-0.4-3-2.2-2.7-4c0-0.1,0.1-0.3,0.1-0.4l13.1-29.9c0.5-1,1.7-1.5,2.7-1
			c0.2,0.1,0.4,0.2,0.5,0.4l0,0c1.2,0.9,1.8,2.5,1.3,3.9l-11.4,25.9l28.1,3.1c1.5,0.3,2.6,1.5,2.7,3.1l0,0c0.3,1.1-0.4,2.2-1.5,2.5
			C1361.2,176.8,1361,176.8,1360.8,176.8z"/>
		<line class="st62" x1="1365.8" y1="124.5" x2="1367.6" y2="171.6"/>
		<path class="st61" d="M1368.4,178L1368.4,178c-1.7,0-3.2-1.3-3.3-3l-2.7-56.6c-0.1-1.7,1.2-3.1,2.9-3.2c0,0,0,0,0.1,0l0,0
			c1.7,0,3.2,1.3,3.3,3l2.7,56.6C1371.5,176.4,1370.2,177.9,1368.4,178C1368.5,178,1368.5,178,1368.4,178z"/>
		<path class="st61" d="M1395.4,156.8l13.1-29.9c0.6-1.8-0.3-3.7-2.1-4.3c-0.1,0-0.3-0.1-0.4-0.1l-32.4-3.6
			c-1.1-0.1-2.1,0.7-2.2,1.9c0,0.2,0,0.4,0,0.6l0,0c0.1,1.5,1.2,2.8,2.7,3.1l28.1,3.1l-11.4,25.9c-0.5,1.4,0,3,1.3,3.9l0,0
			c0.8,0.8,2.1,0.7,2.9-0.1C1395.2,157.1,1395.3,157,1395.4,156.8z"/>
		<path class="st63" d="M1836.2,294.3l-31.3-3.5c-1.8-0.4-2.9-2.1-2.6-3.9c0-0.1,0.1-0.3,0.1-0.4l12.7-28.9c0.5-1,1.7-1.4,2.6-1
			c0.2,0.1,0.4,0.2,0.5,0.3l0,0c1.2,0.8,1.7,2.4,1.2,3.8l-11,25.1l27.2,3c1.4,0.3,2.5,1.5,2.6,3l0,0c0.2,1.1-0.4,2.1-1.5,2.4
			C1836.6,294.3,1836.4,294.3,1836.2,294.3z"/>
		<line class="st64" x1="1841.1" y1="243.7" x2="1842.9" y2="289.3"/>
		<path class="st63" d="M1843.6,295.4L1843.6,295.4c-1.7,0-3.1-1.3-3.1-2.9l-2.6-54.8c-0.1-1.6,1.2-3,2.8-3.1c0,0,0,0,0.1,0l0,0
			c1.7,0,3.1,1.3,3.1,2.9l2.6,54.8C1846.6,293.9,1845.3,295.3,1843.6,295.4C1843.7,295.4,1843.7,295.4,1843.6,295.4z"/>
		<path class="st63" d="M1869.7,274.9l12.7-28.9c0.6-1.7-0.3-3.6-2-4.2c-0.1,0-0.3-0.1-0.4-0.1l-31.3-3.5c-1.1-0.1-2.1,0.7-2.2,1.8
			c0,0.2,0,0.4,0,0.6l0,0c0.1,1.5,1.2,2.7,2.6,3l27.2,3l-11,25.1c-0.5,1.4,0,2.9,1.2,3.8l0,0c0.8,0.7,2.1,0.7,2.8-0.1
			C1869.5,275.3,1869.6,275.1,1869.7,274.9z"/>
		<path class="st61" d="M2108.5,1299.7l-32.4-3.6c-1.8-0.4-3-2.2-2.7-4c0-0.1,0.1-0.3,0.1-0.4l13.1-29.9c0.5-1,1.7-1.5,2.7-1
			c0.2,0.1,0.4,0.2,0.5,0.4l0,0c1.2,0.9,1.8,2.5,1.3,3.9l-11.4,25.9l28.1,3.1c1.5,0.3,2.6,1.5,2.7,3.1l0,0c0.3,1.1-0.4,2.2-1.5,2.5
			C2109,1299.7,2108.7,1299.7,2108.5,1299.7z"/>
		<line class="st62" x1="2113.6" y1="1247.4" x2="2115.4" y2="1294.5"/>
		<path class="st61" d="M2116.2,1300.9L2116.2,1300.9c-1.7,0-3.2-1.3-3.3-3l-2.7-56.6c-0.1-1.7,1.2-3.1,2.9-3.2c0,0,0,0,0.1,0l0,0
			c1.7,0,3.2,1.3,3.3,3l2.7,56.6C2119.3,1299.3,2118,1300.8,2116.2,1300.9C2116.3,1300.8,2116.3,1300.9,2116.2,1300.9z"/>
		<path class="st61" d="M2143.2,1279.6l13.1-29.9c0.6-1.8-0.3-3.7-2.1-4.3c-0.1,0-0.3-0.1-0.4-0.1l-32.4-3.6
			c-1.1-0.1-2.1,0.7-2.2,1.9c0,0.2,0,0.4,0,0.6l0,0c0.1,1.5,1.2,2.8,2.7,3.1l28.1,3.1l-11.4,25.9c-0.5,1.4,0,3,1.3,3.9l0,0
			c0.8,0.8,2.1,0.7,2.9-0.1C2143,1280,2143.1,1279.8,2143.2,1279.6z"/>
	</g>
</g>
</svg>
